<svg width="233" height="233" viewBox="0 0 233 233" fill="none" xmlns="http://www.w3.org/2000/svg">
<rect width="233" height="233" rx="116.5" fill="white"/>
<path d="M167.449 38.7989L165.239 39.5741L164.29 36.7385C162.547 31.5097 156.993 28.7331 151.889 30.4985C146.786 32.2639 144.068 37.9983 145.811 43.2272L146.76 46.0628L144.541 46.8422C143.694 47.1644 143.007 47.7943 142.622 48.601C142.236 49.4076 142.183 50.329 142.472 51.1736L148.623 69.624C148.75 70.0421 148.962 70.4308 149.246 70.7668C149.53 71.1029 149.879 71.3796 150.274 71.5805C150.669 71.7813 151.101 71.9022 151.544 71.936C151.988 71.9697 152.433 71.9157 152.855 71.777L175.764 63.7337C176.621 63.4121 177.318 62.7766 177.708 61.961C178.098 61.1453 178.15 60.213 177.854 59.3602L171.699 40.9098C171.568 40.4929 171.353 40.1061 171.066 39.7726C170.78 39.4391 170.427 39.1657 170.031 38.9687C169.634 38.7717 169.201 38.6551 168.758 38.6259C168.314 38.5967 167.869 38.6556 167.449 38.7989ZM149.988 41.7483C149.518 40.3887 149.602 38.9034 150.223 37.6035C150.844 36.3036 151.953 35.29 153.319 34.7751C153.993 34.5487 154.707 34.4579 155.417 34.5081C156.128 34.5584 156.821 34.7486 157.455 35.0675C158.089 35.3864 158.652 35.8275 159.108 36.3643C159.565 36.9012 159.907 37.5228 160.114 38.1922L161.058 41.0278L150.932 44.5839L149.988 41.7483ZM162.865 58.1215L164.436 62.832C164.465 62.9265 164.456 63.0282 164.41 63.1161C164.365 63.204 164.286 63.2712 164.191 63.3039L161.989 64.075C161.902 64.0988 161.808 64.0885 161.728 64.046C161.648 64.0036 161.588 63.9325 161.56 63.8475L159.976 59.158C159.103 59.1112 158.265 58.8038 157.574 58.2767C156.884 57.7496 156.374 57.028 156.113 56.2086C155.74 55.1253 155.808 53.9422 156.303 52.9071C156.798 51.872 157.682 51.0651 158.77 50.6553C159.307 50.4752 159.876 50.4031 160.442 50.4432C161.008 50.4834 161.56 50.6349 162.065 50.8889C162.57 51.1429 163.018 51.4941 163.382 51.9216C163.746 52.3491 164.018 52.8441 164.183 53.3772C164.459 54.2096 164.482 55.1029 164.249 55.9479C164.015 56.7928 163.536 57.5525 162.869 58.1341L162.865 58.1215Z" fill="#00544F"/>
<path d="M165.14 39.5236C165.14 39.5826 161.041 41.0952 155.942 42.8943C150.842 44.6934 146.683 46.1386 146.661 46.0965C146.64 46.0543 150.761 44.5291 155.864 42.7258C160.968 40.9224 165.119 39.4688 165.14 39.5236Z" fill="#263238"/>
<path d="M170.008 40.2988C170.027 40.3354 170.042 40.3734 170.055 40.4126C170.089 40.4969 170.128 40.6064 170.179 40.7412C170.291 41.0488 170.445 41.4744 170.639 42.0052L172.287 46.7158C172.974 48.713 173.794 51.0809 174.704 53.71C175.133 55.0288 175.639 56.4024 176.111 57.8476C176.364 58.5923 176.473 59.3767 176.433 60.1607C176.397 60.5684 176.279 60.9651 176.086 61.3278C175.879 61.6894 175.604 62.0084 175.274 62.2674C174.611 62.7426 173.875 63.111 173.094 63.3587L170.883 64.1382L166.698 65.6086L159.611 68.0861L154.825 69.7377L153.537 70.1591L153.194 70.2686C153.157 70.2847 153.118 70.2946 153.078 70.2981C153.078 70.2981 153.112 70.2981 153.185 70.2476L153.52 70.1169L154.808 69.6408L159.568 67.9218L166.642 65.3937L170.819 63.9106L173.029 63.1269C173.789 62.8893 174.503 62.5321 175.146 62.0694C175.452 61.829 175.709 61.5329 175.901 61.1972C176.083 60.8617 176.192 60.4932 176.223 60.1144C176.263 59.359 176.158 58.603 175.914 57.8855C175.45 56.4529 174.961 55.0667 174.519 53.748C173.626 51.1146 172.802 48.7382 172.15 46.7411C171.497 44.7439 170.948 43.1386 170.57 42.0095C170.39 41.4575 170.252 41.0277 170.141 40.716L170.038 40.3789C170.025 40.3534 170.015 40.3265 170.008 40.2988Z" fill="#263238"/>
<path d="M157.92 34.4885C157.92 34.4885 157.693 34.379 157.272 34.2105C156.672 33.9843 156.038 33.859 155.396 33.8397C154.444 33.8077 153.497 33.9832 152.623 34.3537C151.56 34.8151 150.651 35.5613 150 36.5068C149.346 37.4495 148.994 38.5636 148.992 39.7047C149.001 40.64 149.145 41.5692 149.421 42.4645C149.644 43.2313 149.876 43.8423 150.031 44.2678C150.122 44.484 150.196 44.7065 150.254 44.9335C150.132 44.7314 150.03 44.5184 149.949 44.2973C149.773 43.876 149.52 43.2777 149.271 42.5066C148.965 41.602 148.799 40.6576 148.777 39.7047C148.766 38.5205 149.125 37.3615 149.807 36.3846C150.481 35.4046 151.427 34.6353 152.533 34.1683C153.434 33.7958 154.411 33.6315 155.388 33.688C156.043 33.7208 156.688 33.8707 157.289 34.1304C157.45 34.2032 157.605 34.2877 157.753 34.3832C157.814 34.4095 157.87 34.4451 157.92 34.4885Z" fill="#263238"/>
<path d="M158.118 50.9755C158.186 50.9348 158.258 50.8996 158.332 50.8702C158.547 50.775 158.77 50.6975 158.998 50.6385C159.36 50.5337 159.733 50.4714 160.109 50.4531C160.622 50.4261 161.135 50.502 161.616 50.6764C162.715 51.0556 163.724 52.1553 164.222 53.6258C164.46 54.4149 164.46 55.2551 164.222 56.0442C163.957 56.9007 163.482 57.6805 162.839 58.3153L162.865 58.2015C163.436 59.7394 164.059 61.4079 164.702 63.148L164.741 63.2533L164.634 63.2913L163.651 63.6115L161.505 64.3151L161.397 64.3488L161.363 64.2435C160.775 62.4992 160.131 60.8728 159.646 59.2759L159.74 59.3475C158.901 59.2791 158.101 58.97 157.44 58.4585C156.841 58.0061 156.35 57.4309 156.002 56.7732C155.687 56.1899 155.53 55.537 155.547 54.8771C155.566 54.2028 155.738 53.541 156.049 52.9394C156.36 52.3377 156.802 51.811 157.345 51.3969C157.568 51.2189 157.819 51.0767 158.088 50.9755C157.845 51.1168 157.61 51.27 157.384 51.4348C156.788 51.9298 156.331 52.5667 156.057 53.2845C155.823 53.8258 155.713 54.4113 155.736 54.9992C155.759 55.5871 155.914 56.1627 156.19 56.6847C156.533 57.3174 157.012 57.8695 157.594 58.3026C158.225 58.7887 158.988 59.0818 159.788 59.1453H159.86L159.882 59.2085C160.354 60.7759 161.002 62.4149 161.599 64.1677L161.457 64.1002L163.604 63.3966L164.582 63.0722L164.514 63.2154C163.874 61.4753 163.256 59.8026 162.689 58.2647V58.2015L162.741 58.1509C163.365 57.5425 163.83 56.7952 164.097 55.9726C164.325 55.2178 164.325 54.4143 164.097 53.6595C163.629 52.2438 162.663 51.1694 161.616 50.7902C161.153 50.6147 160.658 50.533 160.161 50.55C159.79 50.5583 159.422 50.6078 159.062 50.6975C158.423 50.8534 158.122 50.9966 158.118 50.9755Z" fill="#263238"/>
<path d="M144.85 172.633L101.972 172.439C99.4963 172.426 97.1268 171.448 95.3844 169.721C93.6419 167.994 92.669 165.659 92.6793 163.229L93.1343 57.7212C93.1393 56.517 93.3861 55.3256 93.8605 54.2151C94.3349 53.1046 95.0277 52.0968 95.8991 51.2492C96.7705 50.4017 97.8036 49.731 98.9392 49.2756C100.075 48.8201 101.291 48.5889 102.518 48.595L145.391 48.7888C147.867 48.801 150.237 49.7775 151.98 51.5036C153.723 53.2298 154.697 55.5645 154.688 57.995L154.233 163.498C154.228 164.703 153.981 165.895 153.507 167.005C153.033 168.116 152.34 169.125 151.469 169.973C150.598 170.821 149.565 171.493 148.429 171.949C147.293 172.405 146.077 172.638 144.85 172.633Z" fill="#455A64"/>
<path d="M145.326 52.4166H137.016C136.745 52.4215 136.477 52.4788 136.229 52.5852C135.98 52.6917 135.755 52.8451 135.567 53.0369C135.379 53.2286 135.231 53.4548 135.132 53.7026C135.033 53.9504 134.985 54.215 134.99 54.4811V55.96C134.995 56.226 134.947 56.4903 134.848 56.7379C134.749 56.9854 134.601 57.2114 134.412 57.4028C134.224 57.5942 133.999 57.7472 133.751 57.8532C133.502 57.9592 133.235 58.016 132.964 58.0204L116.764 57.9487C116.216 57.9344 115.696 57.7071 115.319 57.3169C114.941 56.9266 114.737 56.4053 114.751 55.8673V54.3884C114.765 53.8512 114.561 53.3305 114.185 52.9403C113.808 52.5502 113.29 52.3224 112.742 52.307H109.819L102.543 52.2733C100.813 52.2632 99.1487 52.9266 97.9153 54.1182C96.682 55.3099 95.98 56.9327 95.963 58.6313L95.5338 161.615C95.5298 162.458 95.695 163.293 96.0199 164.073C96.3448 164.853 96.823 165.562 97.4273 166.161C98.0315 166.76 98.75 167.236 99.5416 167.562C100.333 167.888 101.183 168.057 102.041 168.061L144.828 168.255C145.687 168.259 146.539 168.097 147.334 167.778C148.129 167.459 148.853 166.989 149.463 166.395C150.073 165.802 150.558 165.096 150.891 164.318C151.223 163.541 151.396 162.707 151.4 161.863L151.829 58.8799C151.84 57.1765 151.16 55.5388 149.941 54.3268C148.722 53.1148 147.062 52.4277 145.326 52.4166Z" fill="white"/>
<path d="M139.57 154.515L107.755 154.38C107.424 154.38 107.158 154.027 107.162 153.597L107.197 145.427C107.197 145.006 107.467 144.643 107.797 144.643L139.613 144.787C139.796 144.818 139.96 144.917 140.071 145.064C140.181 145.211 140.229 145.394 140.206 145.574L140.175 153.736C140.175 154.17 139.901 154.519 139.57 154.515Z" fill="#00544F"/>
<path d="M117.268 151.025C117.053 151.025 116.847 150.99 116.648 150.922C116.453 150.85 116.301 150.759 116.194 150.649L116.314 150.414C116.416 150.513 116.552 150.597 116.723 150.665C116.896 150.732 117.078 150.765 117.268 150.765C117.45 150.765 117.597 150.743 117.71 150.699C117.825 150.652 117.909 150.59 117.962 150.513C118.017 150.436 118.044 150.35 118.044 150.257C118.044 150.144 118.011 150.053 117.945 149.984C117.882 149.915 117.798 149.861 117.693 149.823C117.589 149.782 117.473 149.746 117.346 149.716C117.22 149.685 117.093 149.654 116.966 149.621C116.84 149.585 116.723 149.538 116.615 149.48C116.511 149.422 116.425 149.347 116.359 149.253C116.296 149.157 116.264 149.031 116.264 148.877C116.264 148.734 116.301 148.603 116.376 148.485C116.453 148.364 116.57 148.267 116.727 148.196C116.884 148.121 117.085 148.084 117.33 148.084C117.492 148.084 117.653 148.108 117.813 148.154C117.973 148.198 118.11 148.26 118.226 148.34L118.123 148.584C117.999 148.501 117.867 148.441 117.726 148.402C117.589 148.364 117.455 148.344 117.326 148.344C117.152 148.344 117.009 148.368 116.896 148.415C116.783 148.461 116.699 148.525 116.644 148.605C116.592 148.682 116.566 148.77 116.566 148.869C116.566 148.982 116.597 149.073 116.661 149.141C116.727 149.21 116.812 149.264 116.917 149.303C117.024 149.341 117.141 149.376 117.268 149.406C117.395 149.436 117.52 149.469 117.644 149.505C117.77 149.541 117.886 149.588 117.991 149.645C118.098 149.7 118.183 149.775 118.247 149.868C118.313 149.962 118.346 150.085 118.346 150.236C118.346 150.376 118.307 150.507 118.23 150.628C118.153 150.747 118.035 150.843 117.875 150.917C117.718 150.989 117.516 151.025 117.268 151.025ZM119.012 151V148.109H119.317V151H119.012ZM121.526 151.025C121.306 151.025 121.102 150.989 120.915 150.917C120.73 150.843 120.569 150.74 120.431 150.608C120.297 150.475 120.191 150.32 120.113 150.141C120.039 149.962 120.002 149.767 120.002 149.554C120.002 149.342 120.039 149.147 120.113 148.968C120.191 148.789 120.298 148.634 120.436 148.501C120.573 148.369 120.734 148.267 120.919 148.196C121.106 148.121 121.31 148.084 121.53 148.084C121.75 148.084 121.951 148.119 122.133 148.187C122.317 148.256 122.474 148.361 122.604 148.501L122.414 148.695C122.293 148.574 122.159 148.488 122.013 148.435C121.867 148.383 121.71 148.357 121.542 148.357C121.363 148.357 121.198 148.387 121.047 148.448C120.898 148.505 120.767 148.589 120.654 148.7C120.544 148.807 120.458 148.934 120.394 149.08C120.334 149.223 120.303 149.381 120.303 149.554C120.303 149.725 120.334 149.884 120.394 150.029C120.458 150.175 120.544 150.303 120.654 150.414C120.767 150.521 120.898 150.605 121.047 150.665C121.198 150.723 121.362 150.752 121.538 150.752C121.703 150.752 121.859 150.727 122.005 150.678C122.154 150.628 122.29 150.544 122.414 150.426L122.587 150.657C122.45 150.778 122.289 150.871 122.104 150.934C121.92 150.994 121.727 151.025 121.526 151.025ZM122.294 150.62V149.554H122.587V150.657L122.294 150.62ZM123.452 151V148.109H123.704L125.699 150.62H125.567V148.109H125.868V151H125.616L123.626 148.489H123.758V151H123.452ZM129.058 151.025C128.689 151.025 128.398 150.919 128.186 150.707C127.974 150.495 127.868 150.181 127.868 149.765V148.109H128.174V149.753C128.174 150.094 128.251 150.346 128.405 150.509C128.559 150.671 128.777 150.752 129.058 150.752C129.341 150.752 129.56 150.671 129.714 150.509C129.868 150.346 129.945 150.094 129.945 149.753V148.109H130.243V149.765C130.243 150.181 130.137 150.495 129.925 150.707C129.716 150.919 129.426 151.025 129.058 151.025ZM131.164 151V148.109H132.246C132.491 148.109 132.702 148.149 132.878 148.229C133.054 148.306 133.189 148.419 133.282 148.567C133.379 148.713 133.427 148.891 133.427 149.1C133.427 149.304 133.379 149.48 133.282 149.629C133.189 149.775 133.054 149.888 132.878 149.967C132.702 150.047 132.491 150.087 132.246 150.087H131.333L131.469 149.943V151H131.164ZM131.469 149.967L131.333 149.819H132.238C132.527 149.819 132.746 149.757 132.894 149.633C133.046 149.506 133.121 149.329 133.121 149.1C133.121 148.869 133.046 148.69 132.894 148.563C132.746 148.437 132.527 148.373 132.238 148.373H131.333L131.469 148.229V149.967Z" fill="#E8E8E3"/>
<path d="M114.101 82.6898L103.061 82.6406L103.051 84.6293L114.091 84.6785L114.101 82.6898Z" fill="#00544F"/>
<path opacity="0.1" d="M114.101 82.6898L103.061 82.6406L103.051 84.6293L114.091 84.6785L114.101 82.6898Z" fill="black"/>
<path d="M146.464 94.9001C146.55 94.8915 146.636 94.8717 146.717 94.8411C146.836 94.7955 146.939 94.718 147.015 94.6174C147.091 94.5167 147.136 94.3972 147.146 94.2723C147.146 93.6024 147.146 92.6249 147.146 91.3693C147.146 90.7415 147.146 90.0379 147.146 89.2626C147.146 89.073 147.146 88.875 147.146 88.6769C147.174 88.4848 147.132 88.2891 147.026 88.125C146.967 88.0463 146.89 87.9821 146.801 87.9375C146.713 87.8929 146.615 87.8691 146.515 87.868H145.846H139.643L103.741 87.7374C103.649 87.7358 103.558 87.7561 103.476 87.7964C103.394 87.8368 103.323 87.896 103.269 87.9691C103.165 88.1339 103.125 88.3299 103.157 88.5211C103.157 88.9424 103.157 89.3637 103.157 89.7851C103.157 90.6277 103.157 91.4704 103.157 92.3131C103.157 92.7344 103.157 93.1558 103.157 93.5771C103.139 93.7733 103.139 93.9707 103.157 94.167C103.18 94.2511 103.222 94.329 103.28 94.3948C103.338 94.4605 103.41 94.5123 103.492 94.5462C103.577 94.5792 103.667 94.595 103.758 94.5925H105.943L115.477 94.6431L131.616 94.74L142.498 94.8243L145.455 94.858H146.223C146.399 94.858 146.485 94.858 146.485 94.858H146.223H145.455H142.498H131.616L115.477 94.8074L105.943 94.7695H103.758C103.638 94.7743 103.518 94.7542 103.406 94.7105C103.293 94.6632 103.193 94.5911 103.112 94.4998C103.032 94.4086 102.974 94.3005 102.943 94.1838C102.918 94.0733 102.909 93.9598 102.917 93.8468V93.535C102.917 93.1136 102.917 92.6923 102.917 92.271C102.917 91.4283 102.917 90.5856 102.917 89.7429C102.917 89.3216 102.917 88.9003 102.917 88.4789C102.909 88.3667 102.909 88.2541 102.917 88.1418C102.933 88.0179 102.982 87.9002 103.058 87.8006C103.132 87.6989 103.23 87.6162 103.344 87.5597C103.458 87.5033 103.584 87.4746 103.711 87.4761L139.613 87.6699L145.816 87.7121H146.485C146.603 87.7122 146.719 87.7402 146.824 87.7937C146.929 87.8473 147.019 87.9248 147.086 88.0197C147.207 88.2028 147.256 88.423 147.224 88.639C147.224 88.8371 147.224 89.0351 147.224 89.2247C147.224 89.9915 147.224 90.6952 147.224 91.3314C147.224 92.5954 147.193 93.5645 147.185 94.2386C147.174 94.3682 147.126 94.4922 147.047 94.596C146.967 94.6997 146.858 94.7789 146.734 94.8243C146.653 94.8737 146.559 94.8999 146.464 94.9001Z" fill="#E0E0E0"/>
<path d="M126.568 89.8524H106.376V91.7105H126.568V89.8524Z" fill="#00544F"/>
<path opacity="0.2" d="M126.568 89.8524H106.376V91.7105H126.568V89.8524Z" fill="white"/>
<path d="M114.025 100.832L102.985 100.783L102.976 102.772L114.016 102.821L114.025 100.832Z" fill="#00544F"/>
<path opacity="0.1" d="M114.025 100.832L102.985 100.783L102.976 102.772L114.016 102.821L114.025 100.832Z" fill="black"/>
<path d="M146.185 113.043C146.272 113.032 146.358 113.017 146.443 112.997C146.562 112.959 146.673 112.897 146.766 112.814C146.859 112.731 146.933 112.63 146.983 112.516C147.051 112.346 147.077 112.163 147.061 111.981C147.061 111.779 147.061 111.56 147.061 111.315C147.061 110.827 147.061 110.271 147.061 109.63V106.955C147.081 106.761 147.038 106.566 146.936 106.398C146.83 106.227 146.664 106.099 146.468 106.04C146.255 106.003 146.037 105.992 145.82 106.007H139.643L103.866 105.876C103.673 105.876 103.487 105.945 103.343 106.07C103.199 106.195 103.105 106.367 103.08 106.554C103.08 106.955 103.08 107.397 103.08 107.818C103.08 108.661 103.08 109.504 103.08 110.346C103.08 110.768 103.08 111.189 103.08 111.61C103.064 111.807 103.073 112.005 103.106 112.2C103.159 112.371 103.27 112.519 103.419 112.622C103.578 112.72 103.764 112.768 103.952 112.756H104.548H105.789L115.288 112.803L131.372 112.9L142.214 112.984L145.163 113.018H142.214H131.372L115.279 113.001L105.78 112.967H103.913C103.681 112.981 103.45 112.92 103.256 112.794C103.061 112.662 102.918 112.467 102.853 112.242C102.814 112.028 102.803 111.81 102.818 111.594C102.818 111.172 102.818 110.751 102.818 110.329C102.818 109.487 102.818 108.644 102.818 107.801C102.818 107.38 102.818 106.959 102.818 106.537C102.85 106.297 102.969 106.075 103.155 105.915C103.341 105.754 103.58 105.665 103.827 105.665L139.605 105.859L145.782 105.905C146.012 105.892 146.242 105.907 146.468 105.952C146.691 106.023 146.879 106.173 146.996 106.373C147.107 106.559 147.155 106.774 147.134 106.988C147.134 107.186 147.134 107.38 147.134 107.574C147.134 108.337 147.134 109.036 147.134 109.681C147.134 110.325 147.134 110.869 147.134 111.366C147.134 111.606 147.134 111.829 147.134 112.036C147.149 112.224 147.118 112.414 147.044 112.588C146.988 112.704 146.907 112.807 146.807 112.89C146.707 112.973 146.59 113.034 146.464 113.068C146.37 113.076 146.276 113.067 146.185 113.043Z" fill="#E0E0E0"/>
<path d="M113.942 119.762L102.902 119.713L102.893 121.702L113.933 121.751L113.942 119.762Z" fill="#00544F"/>
<path opacity="0.1" d="M113.942 119.762L102.902 119.713L102.893 121.702L113.933 121.751L113.942 119.762Z" fill="black"/>
<path d="M146.099 131.965C146.186 131.955 146.272 131.94 146.357 131.919C146.476 131.882 146.586 131.82 146.679 131.738C146.772 131.656 146.847 131.555 146.897 131.443C146.965 131.273 146.991 131.09 146.975 130.908C146.975 130.701 146.975 130.486 146.975 130.238C146.975 129.753 146.975 129.193 146.975 128.552V125.877C146.995 125.683 146.952 125.488 146.85 125.321C146.742 125.152 146.576 125.027 146.382 124.967C146.169 124.928 145.951 124.915 145.734 124.929H139.557L103.78 124.798C103.587 124.799 103.401 124.868 103.257 124.993C103.113 125.117 103.019 125.289 102.994 125.477C102.994 125.898 102.994 126.319 102.994 126.741C102.994 127.583 102.994 128.426 102.994 129.269C102.994 129.69 102.994 130.111 102.994 130.533C102.978 130.728 102.987 130.925 103.02 131.118C103.071 131.29 103.182 131.439 103.333 131.54C103.491 131.641 103.678 131.688 103.866 131.675H105.733L115.232 131.725L131.316 131.822L142.159 131.906L145.107 131.94H142.159H131.316L115.232 131.894L105.733 131.856H103.866C103.633 131.871 103.402 131.81 103.209 131.683C103.013 131.55 102.871 131.355 102.805 131.131C102.767 130.917 102.755 130.699 102.771 130.482C102.771 130.061 102.771 129.639 102.771 129.218C102.771 128.375 102.771 127.533 102.771 126.69C102.771 126.269 102.771 125.847 102.771 125.405C102.801 125.164 102.92 124.943 103.105 124.782C103.29 124.622 103.528 124.533 103.775 124.533L139.553 124.727L145.73 124.773C145.96 124.759 146.191 124.775 146.417 124.819C146.64 124.891 146.828 125.041 146.945 125.241C147.056 125.426 147.104 125.642 147.082 125.856C147.082 126.054 147.082 126.252 147.082 126.441C147.082 127.204 147.082 127.904 147.082 128.548C147.082 129.193 147.082 129.736 147.082 130.234C147.082 130.474 147.082 130.697 147.082 130.903C147.098 131.092 147.068 131.281 146.992 131.455C146.936 131.572 146.856 131.675 146.756 131.758C146.656 131.841 146.538 131.901 146.412 131.936C146.312 131.97 146.204 131.98 146.099 131.965Z" fill="#E0E0E0"/>
<path d="M126.137 108.521L105.946 108.431L105.937 110.289L126.129 110.379L126.137 108.521Z" fill="#00544F"/>
<path opacity="0.2" d="M126.137 108.521L105.946 108.431L105.937 110.289L126.129 110.379L126.137 108.521Z" fill="white"/>
<path d="M107.771 128.527C107.759 128.697 107.696 128.859 107.59 128.993C107.484 129.128 107.341 129.229 107.177 129.284C107.013 129.34 106.837 129.346 106.669 129.304C106.501 129.262 106.35 129.172 106.234 129.046C106.118 128.92 106.042 128.763 106.016 128.595C105.989 128.427 106.014 128.255 106.086 128.101C106.158 127.947 106.275 127.816 106.422 127.727C106.569 127.637 106.74 127.591 106.913 127.596C107.152 127.609 107.376 127.714 107.537 127.888C107.698 128.063 107.782 128.292 107.771 128.527Z" fill="#00544F"/>
<path d="M110.506 128.54C110.515 128.659 110.498 128.778 110.457 128.89C110.417 129.002 110.353 129.105 110.271 129.192C110.188 129.279 110.088 129.349 109.977 129.396C109.865 129.444 109.745 129.468 109.624 129.468C109.503 129.468 109.383 129.444 109.271 129.396C109.16 129.349 109.06 129.279 108.977 129.192C108.895 129.105 108.831 129.002 108.79 128.89C108.75 128.778 108.733 128.659 108.742 128.54C108.733 128.421 108.75 128.302 108.79 128.189C108.831 128.077 108.895 127.974 108.977 127.887C109.06 127.8 109.16 127.731 109.271 127.683C109.383 127.636 109.503 127.611 109.624 127.611C109.745 127.611 109.865 127.636 109.977 127.683C110.088 127.731 110.188 127.8 110.271 127.887C110.353 127.974 110.417 128.077 110.457 128.189C110.498 128.302 110.515 128.421 110.506 128.54Z" fill="#00544F"/>
<path d="M113.245 128.552C113.232 128.722 113.169 128.884 113.063 129.019C112.958 129.153 112.814 129.254 112.65 129.31C112.487 129.365 112.31 129.372 112.142 129.329C111.975 129.287 111.823 129.197 111.707 129.071C111.591 128.945 111.515 128.789 111.489 128.621C111.462 128.453 111.487 128.281 111.559 128.126C111.632 127.972 111.749 127.842 111.896 127.752C112.042 127.662 112.213 127.617 112.386 127.621C112.625 127.635 112.848 127.741 113.009 127.915C113.169 128.089 113.254 128.318 113.245 128.552Z" fill="#00544F"/>
<path d="M115.979 128.565C115.966 128.734 115.903 128.897 115.797 129.031C115.691 129.166 115.548 129.267 115.384 129.322C115.22 129.378 115.044 129.384 114.876 129.342C114.708 129.3 114.557 129.21 114.441 129.084C114.325 128.958 114.249 128.801 114.223 128.633C114.196 128.465 114.221 128.293 114.293 128.139C114.366 127.985 114.482 127.854 114.629 127.765C114.776 127.675 114.947 127.629 115.12 127.634C115.359 127.648 115.582 127.753 115.743 127.927C115.903 128.102 115.988 128.33 115.979 128.565Z" fill="#00544F"/>
<path d="M118.713 128.574C118.701 128.743 118.639 128.906 118.534 129.041C118.429 129.176 118.285 129.278 118.121 129.334C117.958 129.39 117.781 129.397 117.613 129.355C117.445 129.313 117.293 129.224 117.177 129.098C117.06 128.972 116.984 128.815 116.957 128.647C116.931 128.479 116.955 128.307 117.027 128.152C117.099 127.998 117.216 127.867 117.364 127.777C117.511 127.688 117.681 127.642 117.855 127.647C118.093 127.661 118.316 127.766 118.476 127.939C118.636 128.112 118.721 128.34 118.713 128.574Z" fill="#00544F"/>
<path d="M121.452 128.586C121.44 128.755 121.378 128.917 121.274 129.052C121.17 129.186 121.028 129.288 120.865 129.345C120.703 129.402 120.527 129.41 120.359 129.37C120.192 129.33 120.04 129.243 119.922 129.119C119.805 128.995 119.727 128.84 119.698 128.673C119.669 128.506 119.69 128.335 119.759 128.18C119.828 128.025 119.942 127.893 120.086 127.8C120.23 127.708 120.399 127.659 120.572 127.659C120.813 127.668 121.042 127.77 121.207 127.944C121.372 128.118 121.46 128.349 121.452 128.586Z" fill="#00544F"/>
<path d="M124.186 128.599C124.194 128.717 124.178 128.837 124.137 128.949C124.097 129.061 124.033 129.164 123.95 129.251C123.868 129.338 123.767 129.408 123.656 129.455C123.545 129.503 123.425 129.527 123.304 129.527C123.182 129.527 123.062 129.503 122.951 129.455C122.84 129.408 122.74 129.338 122.657 129.251C122.574 129.164 122.511 129.061 122.47 128.949C122.43 128.837 122.413 128.717 122.422 128.599C122.413 128.48 122.43 128.361 122.47 128.248C122.511 128.136 122.574 128.033 122.657 127.946C122.74 127.859 122.84 127.79 122.951 127.742C123.062 127.695 123.182 127.67 123.304 127.67C123.425 127.67 123.545 127.695 123.656 127.742C123.767 127.79 123.868 127.859 123.95 127.946C124.033 128.033 124.097 128.136 124.137 128.248C124.178 128.361 124.194 128.48 124.186 128.599Z" fill="#00544F"/>
<path d="M126.92 128.611C126.909 128.78 126.847 128.942 126.743 129.077C126.638 129.212 126.496 129.314 126.334 129.37C126.171 129.427 125.996 129.436 125.828 129.396C125.661 129.355 125.509 129.268 125.391 129.144C125.274 129.02 125.195 128.865 125.166 128.699C125.137 128.532 125.159 128.36 125.228 128.205C125.297 128.05 125.41 127.918 125.555 127.826C125.699 127.733 125.868 127.684 126.04 127.684C126.282 127.693 126.51 127.796 126.675 127.969C126.84 128.143 126.928 128.374 126.92 128.611Z" fill="#00544F"/>
<path d="M129.655 128.624C129.643 128.794 129.58 128.956 129.475 129.092C129.37 129.227 129.227 129.329 129.063 129.385C128.899 129.44 128.722 129.448 128.554 129.406C128.386 129.364 128.235 129.274 128.118 129.149C128.002 129.023 127.925 128.866 127.899 128.698C127.872 128.53 127.896 128.358 127.969 128.203C128.041 128.048 128.158 127.918 128.305 127.828C128.452 127.738 128.623 127.693 128.796 127.697C129.034 127.711 129.257 127.816 129.417 127.989C129.578 128.162 129.663 128.39 129.655 128.624Z" fill="#00544F"/>
<g opacity="0.2">
<path d="M107.771 128.527C107.759 128.697 107.696 128.859 107.59 128.993C107.484 129.128 107.341 129.229 107.177 129.284C107.013 129.34 106.837 129.346 106.669 129.304C106.501 129.262 106.35 129.172 106.234 129.046C106.118 128.92 106.042 128.763 106.016 128.595C105.989 128.427 106.014 128.255 106.086 128.101C106.158 127.947 106.275 127.816 106.422 127.727C106.569 127.637 106.74 127.591 106.913 127.596C107.152 127.609 107.376 127.714 107.537 127.888C107.698 128.063 107.782 128.292 107.771 128.527Z" fill="white"/>
<path d="M110.506 128.54C110.514 128.659 110.498 128.778 110.457 128.89C110.416 129.002 110.353 129.105 110.27 129.192C110.187 129.279 110.087 129.349 109.976 129.396C109.865 129.444 109.745 129.468 109.624 129.468C109.502 129.468 109.382 129.444 109.271 129.396C109.16 129.349 109.06 129.279 108.977 129.192C108.894 129.105 108.831 129.002 108.79 128.89C108.749 128.778 108.733 128.659 108.741 128.54C108.733 128.421 108.749 128.302 108.79 128.189C108.831 128.077 108.894 127.974 108.977 127.887C109.06 127.8 109.16 127.731 109.271 127.683C109.382 127.636 109.502 127.611 109.624 127.611C109.745 127.611 109.865 127.636 109.976 127.683C110.087 127.731 110.187 127.8 110.27 127.887C110.353 127.974 110.416 128.077 110.457 128.189C110.498 128.302 110.514 128.421 110.506 128.54Z" fill="white"/>
<path d="M113.244 128.552C113.231 128.722 113.168 128.884 113.063 129.019C112.957 129.153 112.814 129.254 112.65 129.31C112.486 129.365 112.309 129.372 112.142 129.329C111.974 129.287 111.823 129.197 111.707 129.071C111.59 128.945 111.515 128.789 111.488 128.621C111.462 128.453 111.487 128.281 111.559 128.126C111.631 127.972 111.748 127.842 111.895 127.752C112.042 127.662 112.213 127.617 112.386 127.621C112.624 127.635 112.848 127.741 113.008 127.915C113.169 128.089 113.254 128.318 113.244 128.552Z" fill="white"/>
<path d="M115.979 128.565C115.966 128.734 115.903 128.897 115.797 129.031C115.691 129.166 115.548 129.267 115.384 129.322C115.22 129.378 115.044 129.384 114.876 129.342C114.708 129.3 114.557 129.21 114.441 129.084C114.325 128.958 114.249 128.801 114.223 128.633C114.196 128.465 114.221 128.293 114.293 128.139C114.366 127.985 114.482 127.854 114.629 127.765C114.776 127.675 114.947 127.629 115.12 127.634C115.359 127.648 115.582 127.753 115.743 127.927C115.903 128.102 115.988 128.33 115.979 128.565Z" fill="white"/>
<path d="M118.713 128.573C118.701 128.743 118.639 128.906 118.534 129.041C118.429 129.176 118.285 129.278 118.121 129.334C117.958 129.39 117.781 129.397 117.613 129.355C117.445 129.313 117.293 129.224 117.177 129.098C117.06 128.972 116.984 128.815 116.957 128.647C116.931 128.479 116.955 128.307 117.027 128.152C117.099 127.998 117.216 127.867 117.364 127.777C117.511 127.687 117.681 127.642 117.855 127.646C118.093 127.661 118.316 127.765 118.476 127.939C118.636 128.112 118.721 128.34 118.713 128.573Z" fill="white"/>
<path d="M121.452 128.586C121.44 128.755 121.378 128.917 121.274 129.052C121.17 129.186 121.028 129.288 120.865 129.345C120.703 129.402 120.527 129.41 120.359 129.37C120.192 129.33 120.04 129.243 119.922 129.119C119.805 128.995 119.727 128.84 119.698 128.673C119.669 128.506 119.69 128.335 119.759 128.18C119.828 128.025 119.942 127.893 120.086 127.8C120.23 127.708 120.399 127.659 120.572 127.659C120.813 127.668 121.042 127.77 121.207 127.944C121.372 128.118 121.46 128.349 121.452 128.586Z" fill="white"/>
<path d="M124.186 128.599C124.194 128.717 124.178 128.837 124.137 128.949C124.097 129.061 124.033 129.164 123.95 129.251C123.868 129.338 123.767 129.408 123.656 129.455C123.545 129.503 123.425 129.527 123.304 129.527C123.182 129.527 123.062 129.503 122.951 129.455C122.84 129.408 122.74 129.338 122.657 129.251C122.574 129.164 122.511 129.061 122.47 128.949C122.43 128.837 122.413 128.717 122.422 128.599C122.413 128.48 122.43 128.361 122.47 128.248C122.511 128.136 122.574 128.033 122.657 127.946C122.74 127.859 122.84 127.79 122.951 127.742C123.062 127.695 123.182 127.67 123.304 127.67C123.425 127.67 123.545 127.695 123.656 127.742C123.767 127.79 123.868 127.859 123.95 127.946C124.033 128.033 124.097 128.136 124.137 128.248C124.178 128.361 124.194 128.48 124.186 128.599Z" fill="white"/>
<path d="M126.92 128.611C126.909 128.78 126.847 128.942 126.743 129.077C126.638 129.212 126.496 129.314 126.334 129.37C126.171 129.427 125.996 129.436 125.828 129.395C125.661 129.355 125.509 129.268 125.391 129.144C125.274 129.02 125.195 128.865 125.166 128.698C125.137 128.532 125.159 128.36 125.228 128.205C125.297 128.05 125.41 127.918 125.555 127.825C125.699 127.733 125.868 127.684 126.04 127.684C126.282 127.693 126.51 127.796 126.675 127.969C126.84 128.143 126.928 128.374 126.92 128.611Z" fill="white"/>
<path d="M129.655 128.624C129.643 128.794 129.58 128.956 129.475 129.091C129.37 129.227 129.227 129.329 129.063 129.384C128.899 129.44 128.722 129.448 128.554 129.406C128.386 129.364 128.235 129.274 128.118 129.148C128.002 129.023 127.925 128.866 127.899 128.698C127.872 128.53 127.896 128.358 127.969 128.203C128.041 128.048 128.158 127.918 128.305 127.828C128.452 127.738 128.623 127.692 128.796 127.697C129.034 127.711 129.257 127.816 129.417 127.989C129.578 128.162 129.663 128.39 129.655 128.624Z" fill="white"/>
</g>
<path d="M125.77 67.7996C126.068 67.6707 126.321 67.4586 126.497 67.1896C126.674 66.9207 126.765 66.6068 126.761 66.287C126.772 66.0791 126.74 65.8712 126.667 65.6759C126.594 65.4806 126.48 65.302 126.334 65.151C126.188 65 126.013 64.8797 125.818 64.7975C125.623 64.7154 125.413 64.673 125.201 64.673C124.989 64.673 124.779 64.7154 124.584 64.7975C124.389 64.8797 124.214 65 124.068 65.151C123.922 65.302 123.808 65.4806 123.735 65.6759C123.662 65.8712 123.63 66.0791 123.641 66.287C123.634 66.61 123.725 66.9277 123.902 67.1999C124.08 67.4721 124.335 67.6866 124.637 67.8165C122.233 68.1704 122.34 70.7321 122.34 70.7321L128.023 70.7574C128.023 70.7574 128.156 68.1493 125.77 67.7996Z" fill="#00544F"/>
<path opacity="0.1" d="M125.77 67.7996C126.068 67.6707 126.321 67.4586 126.497 67.1896C126.674 66.9207 126.765 66.6068 126.761 66.287C126.772 66.0791 126.74 65.8712 126.667 65.6759C126.594 65.4806 126.48 65.302 126.334 65.151C126.188 65 126.013 64.8797 125.818 64.7975C125.623 64.7154 125.413 64.673 125.201 64.673C124.989 64.673 124.779 64.7154 124.584 64.7975C124.389 64.8797 124.214 65 124.068 65.151C123.922 65.302 123.808 65.4806 123.735 65.6759C123.662 65.8712 123.63 66.0791 123.641 66.287C123.634 66.61 123.725 66.9277 123.902 67.1999C124.08 67.4721 124.335 67.6866 124.637 67.8165C122.233 68.1704 122.34 70.7321 122.34 70.7321L128.023 70.7574C128.023 70.7574 128.156 68.1493 125.77 67.7996Z" fill="black"/>
<path d="M135.005 72.4097L114.749 72.3195L114.738 74.6958L134.994 74.786L135.005 72.4097Z" fill="#00544F"/>
<path opacity="0.2" d="M135.005 72.4097L114.749 72.3195L114.738 74.6958L134.994 74.786L135.005 72.4097Z" fill="white"/>
<path d="M81.433 202.556V198.954L74.8527 198.907L74.7969 204.355L75.2047 204.385C77.0204 204.499 84.442 204.667 85.6611 204.296C87.0175 203.883 81.433 202.556 81.433 202.556Z" fill="#00544F"/>
<path d="M85.8156 203.959C85.8156 204.018 83.3518 204.069 80.317 204.069C77.2822 204.069 74.8184 204.018 74.8184 203.959C74.8184 203.9 77.2822 203.85 80.317 203.85C83.3518 203.85 85.8156 203.9 85.8156 203.959Z" fill="#263238"/>
<path d="M81.5488 203.294C81.493 203.264 81.5488 203.074 81.6819 202.872C81.815 202.67 81.9953 202.586 82.0382 202.628C82.0811 202.67 81.991 202.83 81.8622 203.003C81.7334 203.176 81.6046 203.323 81.5488 203.294Z" fill="#263238"/>
<path d="M81.9697 203.53C81.9096 203.53 81.9396 203.294 82.0684 203.07C82.1972 202.847 82.3689 202.712 82.4161 202.746C82.4633 202.78 82.386 202.969 82.2659 203.167C82.1457 203.365 82.0255 203.551 81.9697 203.53Z" fill="#263238"/>
<path d="M76.8015 203.942C76.7757 203.942 76.677 203.867 76.5354 203.706C76.3624 203.501 76.1698 203.312 75.9602 203.142C75.754 202.98 75.5084 202.874 75.2476 202.834C75.0459 202.809 74.9171 202.834 74.9042 202.809C74.8914 202.784 75.0158 202.695 75.2519 202.678C75.5635 202.672 75.8674 202.773 76.1104 202.965C76.3381 203.147 76.5301 203.368 76.677 203.618C76.7757 203.803 76.8272 203.926 76.8015 203.942Z" fill="#263238"/>
<path d="M81.5707 202.615C81.6008 202.666 81.4892 202.792 81.3003 202.86C81.1114 202.927 80.944 202.902 80.9355 202.86C80.9269 202.817 81.0599 202.729 81.223 202.67C81.3862 202.611 81.5364 202.565 81.5707 202.615Z" fill="#263238"/>
<path d="M81.4676 202.265C81.4676 202.329 81.2959 202.379 81.0727 202.383C80.8495 202.388 80.6735 202.337 80.6778 202.278C80.6821 202.219 80.8581 202.164 81.0727 202.16C81.2873 202.156 81.459 202.207 81.4676 202.265Z" fill="#263238"/>
<path d="M97.6371 202.556V198.954L91.0568 198.907L91.001 204.301L91.4088 204.33C93.2245 204.444 100.65 204.667 101.865 204.296C103.222 203.883 97.6371 202.556 97.6371 202.556Z" fill="#00544F"/>
<path d="M102.02 203.968C102.02 204.027 99.5603 204.077 96.5212 204.077C93.4821 204.077 91.0269 204.027 91.0269 203.968C91.0269 203.909 93.4864 203.858 96.5212 203.858C99.556 203.858 102.02 203.909 102.02 203.968Z" fill="#263238"/>
<path d="M97.7531 203.294C97.7016 203.264 97.7531 203.074 97.8861 202.872C98.0192 202.67 98.1995 202.586 98.2424 202.628C98.2853 202.67 98.1952 202.83 98.0664 203.003C97.9376 203.176 97.8089 203.323 97.7531 203.294Z" fill="#263238"/>
<path d="M98.1737 203.53C98.1179 203.53 98.1436 203.294 98.2767 203.07C98.4098 202.847 98.5772 202.712 98.6244 202.746C98.6716 202.78 98.59 202.969 98.4699 203.167C98.3497 203.365 98.2338 203.551 98.1737 203.53Z" fill="#263238"/>
<path d="M93.0056 203.942C92.9798 203.942 92.8854 203.867 92.7395 203.706C92.5666 203.501 92.3739 203.312 92.1643 203.142C91.9581 202.98 91.7125 202.874 91.4517 202.834C91.2543 202.809 91.1212 202.834 91.1083 202.809C91.0955 202.784 91.2199 202.695 91.456 202.678C91.7676 202.672 92.0715 202.773 92.3145 202.965C92.5433 203.146 92.7355 203.367 92.8811 203.618C92.9798 203.803 93.0314 203.926 93.0056 203.942Z" fill="#263238"/>
<path d="M97.7743 202.615C97.8044 202.666 97.6928 202.792 97.5039 202.86C97.3151 202.927 97.1477 202.902 97.1391 202.86C97.1305 202.817 97.2635 202.729 97.4267 202.67C97.5898 202.611 97.74 202.565 97.7743 202.615Z" fill="#263238"/>
<path d="M97.6801 202.265C97.6801 202.329 97.5084 202.379 97.2852 202.383C97.062 202.388 96.8903 202.337 96.8946 202.278C96.8989 202.219 97.0706 202.164 97.2852 202.16C97.4998 202.156 97.6801 202.207 97.6801 202.265Z" fill="#263238"/>
<path d="M121.881 95.5784C121.709 95.4057 121.284 95.49 121.284 95.49C121.327 95.2474 121.327 94.9994 121.284 94.7568C121.207 94.5209 120.666 94.5672 120.666 94.5672C120.641 94.3685 120.641 94.1676 120.666 93.9689C120.671 93.9249 120.661 93.8806 120.639 93.8422C120.616 93.8037 120.583 93.7729 120.542 93.754C120.286 93.6516 120.011 93.6028 119.735 93.6108C119.404 93.3791 120.744 91.5378 121.241 90.9479C121.739 90.3581 121.649 89.8988 121.207 89.8988C120.902 89.8988 119.34 91.6684 118.859 92.2625C118.378 92.8566 117.104 94.5082 117.061 93.1895C117.018 91.8707 116.477 90.8763 116.138 90.7078C115.799 90.5392 115.438 90.9353 115.623 91.3019C115.785 91.7183 115.886 92.1552 115.923 92.5996C115.97 92.9535 115.954 93.3127 115.876 93.6614C115.734 94.31 115.54 94.9468 115.296 95.5658H115.262C115.262 95.5658 105.896 104.384 105.218 105.012C104.612 105.577 92.4391 104.342 89.9966 104.089C89.1667 103.97 88.3286 103.914 87.4898 103.921C86.4296 103.967 86.2407 104.115 85.1848 104.127C82.5181 104.156 79.8575 104.386 77.2266 104.814C76.0353 105.013 74.9225 105.529 74.0096 106.306C73.0967 107.084 72.4188 108.092 72.0499 109.221C69.5903 116.763 64.0187 134.615 63.0357 144.643C62.2929 145.965 61.6223 147.326 61.0268 148.718C60.3357 150.563 60.5032 150.626 60.7349 150.668C61.3616 150.782 62.0742 147.47 62.3403 148.271C62.6065 149.072 60.9882 152.219 61.6449 152.312C62.5034 152.43 63.1859 148.941 63.2675 148.663C63.3491 148.385 63.774 148.473 63.6967 148.735C63.5723 149.105 62.3661 153.036 63.2074 153.163C63.671 153.23 63.7225 152.4 63.7225 152.4C63.7225 152.4 64.581 148.638 64.9716 148.713C65.3622 148.789 64.9458 151.01 64.7484 151.751C64.5509 152.493 64.8257 152.868 65.2291 152.687C65.5039 152.56 66.1606 150.306 66.3409 149.573C66.5212 148.84 66.9719 146.809 67.5771 147.985C68.1824 149.16 69.1009 149.843 69.4787 149.859C69.5638 149.85 69.644 149.815 69.7091 149.761C69.7741 149.706 69.8209 149.633 69.8435 149.552C69.8662 149.471 69.8635 149.385 69.836 149.305C69.8085 149.226 69.7573 149.156 69.689 149.105C69.3641 148.794 69.0853 148.439 68.8606 148.052C68.6603 147.75 68.5151 147.417 68.4313 147.066C68.2583 146.367 68.1577 145.653 68.1309 144.934L68.0622 144.513C69.0237 139.84 71.7923 126.125 75.7886 117.366L77.4283 120.678L78.1409 123.13L73.7711 133.718L92.409 133.478L89.6275 122.97L93.0057 112.015C96.6585 112.095 106.038 112.23 107.6 111.535C109.566 110.692 119.735 98.0854 119.735 98.0854C120.398 97.5798 121.032 97.0397 121.636 96.4675C121.636 96.4675 122.254 95.9576 121.881 95.5784Z" fill="#FFBE9D"/>
<path d="M72.9514 125.894C73.4922 124.082 76.2694 115.124 76.2694 115.124C76.2694 115.124 77.6344 122.426 77.2739 123.307C76.9422 124.061 76.5504 124.788 76.102 125.481C72.9514 130.187 73.3634 132.542 73.3634 132.542L92.4005 131.974C92.4434 129.361 90.8681 123.286 90.5419 122.317C90.2156 121.347 91.3016 118.175 91.3016 118.175C91.3016 118.175 93.4479 116.03 93.3706 114.926C93.3298 113.935 93.2049 112.948 92.9971 111.977L104.587 112.398L104.222 104.688L87.5758 103.053C86.9963 104.658 81.7552 103.87 81.7552 103.87C76.0977 104.056 75.7457 105.075 73.3935 106.87C71.0412 108.665 67.1479 124.069 67.1479 124.069L72.9514 125.894Z" fill="#00544F"/>
<path d="M84.2063 124.069C83.8764 124.127 83.5404 124.144 83.2062 124.12C82.5837 124.12 81.7295 124.078 80.7895 123.985C79.8494 123.892 78.9995 123.762 78.3943 123.644C78.0606 123.602 77.7334 123.52 77.4199 123.399C77.7555 123.4 78.0904 123.431 78.4201 123.492C79.0296 123.568 79.8752 123.673 80.811 123.766C81.7467 123.859 82.5966 123.922 83.2104 123.964C83.545 123.968 83.8785 124.003 84.2063 124.069Z" fill="#263238"/>
<path d="M85.5111 122.481C85.181 122.64 84.8321 122.757 84.4723 122.831C82.7597 123.272 80.9929 123.478 79.2226 123.441C78.8563 123.453 78.4899 123.419 78.1323 123.34C78.4939 123.296 78.8583 123.277 79.2226 123.286C79.8965 123.265 80.8237 123.218 81.8453 123.1C82.8669 122.982 83.7769 122.814 84.4208 122.679C84.7784 122.585 85.1429 122.519 85.5111 122.481Z" fill="#263238"/>
<path d="M91.9154 115.394C91.9067 115.715 91.8621 116.034 91.7823 116.346C91.6707 116.932 91.499 117.732 91.2801 118.609C91.0612 119.485 90.8508 120.294 90.662 120.842C90.586 121.155 90.4737 121.459 90.3271 121.748C90.3511 121.427 90.4115 121.111 90.5074 120.804C90.6705 120.147 90.8551 119.388 91.0612 118.558C91.2672 117.728 91.4646 116.97 91.6278 116.312C91.6859 115.996 91.7824 115.688 91.9154 115.394Z" fill="#263238"/>
<path d="M73.1529 124.819C72.1599 124.669 71.1798 124.445 70.2212 124.149C69.2416 123.925 68.2803 123.629 67.3452 123.265C68.3378 123.418 69.3176 123.641 70.277 123.934C71.2568 124.158 72.2181 124.454 73.1529 124.819Z" fill="#263238"/>
<path d="M93.2031 111.884C93.0412 111.912 92.8757 111.912 92.7137 111.884C92.2654 111.839 91.8251 111.736 91.4045 111.577C90.7023 111.318 90.0631 110.917 89.5279 110.401C88.9927 109.885 88.5733 109.265 88.2968 108.581C87.9911 107.828 87.8606 107.018 87.9148 106.209C87.9339 105.542 88.1372 104.892 88.5028 104.33C88.76 103.951 89.1442 103.672 89.5888 103.542C89.7076 103.51 89.8305 103.494 89.9537 103.495C90.0395 103.495 90.0825 103.495 90.0825 103.495C90.0825 103.495 89.9022 103.495 89.6146 103.609C89.2067 103.757 88.8608 104.034 88.6316 104.397C88.0478 105.299 87.8847 106.946 88.5071 108.484C88.7968 109.209 89.2503 109.86 89.8335 110.388C90.3114 110.821 90.8617 111.168 91.4603 111.416C92.0221 111.634 92.6065 111.791 93.2031 111.884Z" fill="#263238"/>
<path d="M103.209 112.247C103.101 110.955 103.067 109.658 103.106 108.362C103.072 107.067 103.112 105.772 103.226 104.481C103.333 105.772 103.368 107.067 103.329 108.362C103.365 109.658 103.325 110.955 103.209 112.247Z" fill="#263238"/>
<path d="M87.464 103.525C87.5112 102.585 87.61 101.524 87.61 101.524C87.61 101.524 89.9794 101.266 90.1211 98.8649C90.2627 96.4632 90.1211 90.9226 90.1211 90.9226L85.8286 88.7654L81.064 92.4437L81.798 104.452L86.1677 104.726C86.5017 104.735 86.8258 104.613 87.0688 104.388C87.3118 104.163 87.4539 103.853 87.464 103.525Z" fill="#FFBE9D"/>
<path d="M87.8891 96.9647C87.8891 96.9647 87.8891 97.011 87.8505 97.0658C87.8186 97.1055 87.7773 97.137 87.7301 97.1576C87.683 97.1781 87.6315 97.1871 87.5801 97.1838C87.3054 97.1838 87.0392 96.872 86.9448 96.5096C86.8999 96.334 86.8999 96.1502 86.9448 95.9745C86.9536 95.8978 86.9818 95.8245 87.0267 95.7613C87.0717 95.698 87.1321 95.6467 87.2023 95.6122C87.2601 95.5888 87.3249 95.5888 87.3826 95.6122C87.4254 95.633 87.4601 95.6671 87.4814 95.7091C87.5114 95.7807 87.4814 95.827 87.4814 95.8228C87.4814 95.8186 87.4814 95.7807 87.4384 95.7386C87.416 95.7084 87.383 95.6874 87.3458 95.6796C87.3085 95.6718 87.2697 95.6778 87.2367 95.6964C87.184 95.7277 87.1403 95.7715 87.1095 95.8238C87.0787 95.8761 87.0619 95.9352 87.0607 95.9956C87.0246 96.1523 87.0246 96.315 87.0607 96.4717C87.1465 96.8003 87.3783 97.0658 87.5844 97.0911C87.6247 97.0964 87.6657 97.0936 87.7048 97.0827C87.744 97.0718 87.7804 97.0532 87.8119 97.0279C87.8634 96.9942 87.8806 96.9604 87.8891 96.9647Z" fill="#EB996E"/>
<path d="M91.5933 89.6249C91.2628 88.521 90.0652 87.9733 88.9749 87.6699C87.3137 87.2064 85.5194 87.0042 83.8969 87.5899C82.2743 88.1755 80.3256 89.2036 80.3256 90.9606C79.3684 90.8847 78.8189 91.7063 78.4412 92.726C78.1997 93.3472 78.055 94.0006 78.0119 94.6641C77.8917 96.9646 77.235 100.142 75.7155 101.827C74.857 102.766 73.668 103.415 73.1786 104.587C72.7494 105.602 72.9726 106.807 72.5734 107.835C72.2171 108.741 71.4316 109.386 70.8564 110.174C70.2704 111.067 69.9255 112.093 69.8542 113.153C69.7829 114.214 69.9874 115.275 70.4486 116.237C70.9131 117.174 71.5671 118.008 72.3708 118.689C73.1744 119.37 74.1109 119.883 75.1231 120.197C77.1281 120.796 79.2662 120.816 81.2828 120.256C82.7962 119.901 84.208 119.214 85.4121 118.246C86.6442 117.259 87.4904 115.883 87.8073 114.353C88.1121 112.634 87.6227 110.886 87.2579 109.175C86.1161 103.769 86.4423 103.487 87.8846 98.4688C87.9189 98.3803 87.9361 98.2876 87.9619 98.1992C87.9876 98.1107 88.0005 98.0685 88.0177 98.0011C88.0586 97.8028 88.0802 97.601 88.082 97.3986C87.8714 97.4755 87.6427 97.4918 87.423 97.4455C87.2032 97.3992 87.0015 97.2923 86.8415 97.1374C86.6812 96.9722 86.5694 96.7674 86.518 96.5449C86.4666 96.3224 86.4775 96.0903 86.5496 95.8734C86.6509 95.6361 86.8018 95.4224 86.9926 95.246C87.1834 95.0696 87.4097 94.9346 87.6571 94.8495C88.1335 94.6557 88.6444 94.5546 89.1122 94.3397C90.1038 93.8762 90.7906 92.9156 91.2585 91.9086C91.6431 91.2106 91.7618 90.401 91.5933 89.6249Z" fill="#263238"/>
<path d="M88.0608 97.0784C88.1515 97.2099 88.2264 97.3513 88.284 97.4997C88.4128 97.7652 88.5845 98.1401 88.7733 98.5741L88.8077 98.6542H88.7175L88.2883 98.6921C87.9921 98.6921 87.7432 98.7469 87.4513 98.7427C87.4258 98.737 87.4023 98.7252 87.3828 98.7083C87.3633 98.6913 87.3484 98.6698 87.3397 98.6457C87.3269 98.6074 87.3269 98.5661 87.3397 98.5278C87.3496 98.471 87.3625 98.4147 87.3783 98.3592L87.4556 98.0601C87.4944 97.8605 87.5548 97.6656 87.6358 97.4786C87.6279 97.6821 87.5976 97.8841 87.5457 98.0812L87.4856 98.3803C87.4641 98.4814 87.4255 98.6373 87.4856 98.6247C87.7002 98.6247 88.005 98.5783 88.2883 98.5615L88.7175 98.5236L88.6617 98.6163C88.4772 98.1949 88.3226 97.7989 88.2325 97.525C88.1534 97.3851 88.0956 97.2347 88.0608 97.0784Z" fill="#00544F"/>
<path d="M73.3632 132.542L92.4002 131.974L100.685 163.717L99.1608 200.129H89.095L90.327 164.493L82.9654 142.393L84.0986 201.541L73.9255 201.688L72.8566 146.093C72.8094 144.546 72.2943 141.062 72.4875 139.528L73.3632 132.542Z" fill="#263238"/>
<path d="M85.4979 142.844C85.1863 142.863 84.8735 142.845 84.5664 142.789C83.9913 142.722 83.2057 142.604 82.343 142.435C81.4802 142.267 80.7075 142.073 80.1495 141.917C79.8512 141.853 79.5627 141.751 79.291 141.614C79.291 141.551 80.6904 141.879 82.4073 142.221C84.1243 142.562 85.5065 142.781 85.4979 142.844Z" fill="#455A64"/>
<path d="M99.0581 198.132C99.0581 198.191 96.7788 198.242 93.9672 198.242C91.1557 198.242 88.8721 198.191 88.8721 198.132C88.8721 198.073 91.1514 198.023 93.9672 198.023C96.7831 198.023 99.0581 198.069 99.0581 198.132Z" fill="#455A64"/>
<path d="M84.0086 200.003C84.0086 200.066 81.7937 200.113 79.0637 200.113C76.3337 200.113 74.123 200.066 74.123 200.003C74.123 199.94 76.338 199.893 79.0637 199.893C81.7894 199.893 84.0086 199.944 84.0086 200.003Z" fill="#455A64"/>
<path d="M82.6951 199.851C82.635 199.851 82.3689 186.929 82.0984 170.99C81.828 155.05 81.6692 142.12 81.725 142.12C81.7808 142.12 82.0555 155.038 82.3216 170.985C82.5878 186.933 82.7595 199.851 82.6951 199.851Z" fill="#455A64"/>
<path d="M97.7059 198.132C97.7012 198.075 97.7012 198.017 97.7059 197.959V197.454C97.7059 196.999 97.7403 196.346 97.766 195.516C97.8261 193.83 97.912 191.382 98.0193 188.382C98.2511 182.349 98.5773 174.032 98.9336 164.851C98.9336 164.762 98.9336 164.678 98.9336 164.602V164.632C96.68 155.783 94.6411 147.753 93.1602 141.943L91.4432 135.071C91.2458 134.266 91.0955 133.638 90.9882 133.2C90.9367 132.993 90.9024 132.833 90.8723 132.711C90.8556 132.656 90.8455 132.6 90.8423 132.542C90.8646 132.596 90.8818 132.651 90.8938 132.707C90.9281 132.825 90.9711 132.985 91.0311 133.187C91.147 133.608 91.3145 134.249 91.5291 135.049C91.9583 136.676 92.5636 139.018 93.319 141.905C94.8128 147.711 96.8732 155.72 99.1568 164.581V164.611C99.1568 164.686 99.1568 164.775 99.1568 164.859C98.7747 174.04 98.4271 182.353 98.1738 188.387C98.0407 191.391 97.9291 193.822 97.8519 195.516C97.8089 196.358 97.7746 196.999 97.7531 197.454C97.7531 197.669 97.7274 197.837 97.7231 197.959C97.7237 198.017 97.718 198.075 97.7059 198.132Z" fill="#455A64"/>
<path d="M94.4221 163.861C93.6991 164.094 92.9542 164.256 92.1986 164.345C91.2714 164.501 90.4816 164.611 90.1253 164.627V164.543C90.2412 164.577 90.3013 164.598 90.3013 164.615C90.3013 164.632 90.2283 164.615 90.1081 164.615H89.8506L90.1081 164.539C90.4429 164.442 91.2328 164.282 92.1599 164.118C92.9035 163.959 93.6612 163.873 94.4221 163.861Z" fill="#455A64"/>
<path d="M94.2462 165.07C93.5766 165.1 92.9057 165.07 92.2416 164.981C91.5711 164.968 90.9031 164.896 90.2456 164.766C91.5871 164.659 92.9374 164.761 94.2462 165.07Z" fill="#455A64"/>
<path opacity="0.2" d="M73.2817 133.212C73.5072 133.497 73.7912 133.731 74.1151 133.9C74.4391 134.069 74.7957 134.169 75.1618 134.194C75.9285 134.283 76.7041 134.269 77.4669 134.152C82.3818 133.617 87.5885 133.124 92.4003 131.974C86.172 132.315 79.5917 132.201 73.3633 132.542L73.2989 133.065" fill="black"/>
<g opacity="0.2">
<path d="M79.6992 141.829L83.2104 155.202L82.9658 142.393L79.6992 141.829Z" fill="black"/>
</g>
</svg>
