<svg width="312" height="312" viewBox="0 0 312 312" fill="none" xmlns="http://www.w3.org/2000/svg">
<rect width="312" height="312" rx="156" fill="#ECFCE5"/>
<path d="M118.789 62.2622H95.5437V146.142H118.789V62.2622Z" fill="#F5F5F5"/>
<path d="M118.788 62.2622H107.166V145.913H118.788V62.2622Z" fill="#EBEBEB"/>
<path d="M106.407 54.0227H98.1982V62.2569H106.407V54.0227Z" fill="#F5F5F5"/>
<path d="M106.406 54.0227H104.449V62.2569H106.406V54.0227Z" fill="#EBEBEB"/>
<path d="M93.606 62.2623V61.7805H119.471V62.2623" fill="#E0E0E0"/>
<path d="M102.098 65.8538H100.131V70.5786H102.098V65.8538Z" fill="#FAFAFA"/>
<path d="M107.166 72.4289C107.166 72.4782 104.565 72.522 101.353 72.522C98.1404 72.522 95.5437 72.4782 95.5437 72.4289C95.5437 72.3796 98.1452 72.3413 101.353 72.3413C104.56 72.3413 107.166 72.3796 107.166 72.4289Z" fill="#E0E0E0"/>
<path d="M113.821 65.8538H111.855V70.5786H113.821V65.8538Z" fill="#E0E0E0"/>
<path d="M118.89 72.4289C118.89 72.4782 116.288 72.522 113.081 72.522C109.873 72.522 107.267 72.4782 107.267 72.4289C107.267 72.3796 109.869 72.3413 113.081 72.3413C116.293 72.3413 118.89 72.3796 118.89 72.4289Z" fill="#E0E0E0"/>
<path d="M113.821 75.2319H111.855V79.9567H113.821V75.2319Z" fill="#E0E0E0"/>
<path d="M118.89 81.8076C118.89 81.8568 116.288 81.9006 113.081 81.9006C109.873 81.9006 107.267 81.8568 107.267 81.8076C107.267 81.7583 109.869 81.72 113.081 81.72C116.293 81.72 118.89 81.7583 118.89 81.8076Z" fill="#E0E0E0"/>
<path d="M113.821 84.8899H111.855V89.6147H113.821V84.8899Z" fill="#E0E0E0"/>
<path d="M118.89 91.4707C118.89 91.5199 116.288 91.5583 113.081 91.5583C109.873 91.5583 107.267 91.5199 107.267 91.4707C107.267 91.4214 109.869 91.3831 113.081 91.3831C116.293 91.3831 118.89 91.4214 118.89 91.4707Z" fill="#E0E0E0"/>
<path d="M113.821 94.553H111.855V99.2778H113.821V94.553Z" fill="#E0E0E0"/>
<path d="M118.89 101.134C118.89 101.183 116.288 101.221 113.081 101.221C109.873 101.221 107.267 101.183 107.267 101.134C107.267 101.084 109.869 101.041 113.081 101.041C116.293 101.041 118.89 101.084 118.89 101.134Z" fill="#E0E0E0"/>
<path d="M113.821 103.943H111.855V108.667H113.821V103.943Z" fill="#E0E0E0"/>
<path d="M118.89 110.523C118.89 110.572 116.288 110.616 113.081 110.616C109.873 110.616 107.267 110.572 107.267 110.523C107.267 110.474 109.869 110.436 113.081 110.436C116.293 110.436 118.89 110.468 118.89 110.523Z" fill="#E0E0E0"/>
<path d="M113.821 113.364H111.855V118.089H113.821V113.364Z" fill="#E0E0E0"/>
<path d="M113.821 122.913H111.855V127.637H113.821V122.913Z" fill="#E0E0E0"/>
<path d="M118.89 119.94C118.89 119.989 116.288 120.033 113.081 120.033C109.873 120.033 107.267 119.989 107.267 119.94C107.267 119.89 109.869 119.852 113.081 119.852C116.293 119.852 118.89 119.89 118.89 119.94Z" fill="#E0E0E0"/>
<path d="M102.098 75.3745H100.131V80.0993H102.098V75.3745Z" fill="#FAFAFA"/>
<path d="M107.166 81.9497C107.166 81.9989 104.565 82.0427 101.352 82.0427C98.1403 82.0427 95.5341 81.9989 95.5341 81.9497C95.5341 81.9004 98.1355 81.8621 101.343 81.8621C104.55 81.8621 107.166 81.9004 107.166 81.9497Z" fill="#E0E0E0"/>
<path d="M102.098 84.8955H100.131V89.6203H102.098V84.8955Z" fill="#FAFAFA"/>
<path d="M107.166 91.4761C107.166 91.5254 104.565 91.5637 101.352 91.5637C98.1403 91.5637 95.5341 91.5254 95.5341 91.4761C95.5341 91.4269 98.1355 91.3831 101.343 91.3831C104.55 91.3831 107.166 91.4269 107.166 91.4761Z" fill="#E0E0E0"/>
<path d="M102.098 94.4163H100.131V99.1411H102.098V94.4163Z" fill="#FAFAFA"/>
<path d="M107.166 100.997C107.166 101.046 104.565 101.084 101.352 101.084C98.1403 101.084 95.5341 101.046 95.5341 100.997C95.5341 100.948 98.1355 100.904 101.343 100.904C104.55 100.904 107.166 100.948 107.166 100.997Z" fill="#E0E0E0"/>
<path d="M102.098 103.943H100.131V108.667H102.098V103.943Z" fill="#FAFAFA"/>
<path d="M107.166 110.523C107.166 110.572 104.565 110.616 101.352 110.616C98.1403 110.616 95.5341 110.567 95.5341 110.523C95.5341 110.479 98.1355 110.436 101.343 110.436C104.55 110.436 107.166 110.468 107.166 110.523Z" fill="#E0E0E0"/>
<path d="M102.098 113.463H100.131V118.188H102.098V113.463Z" fill="#FAFAFA"/>
<path d="M107.166 120.038C107.166 120.087 104.565 120.131 101.353 120.131C98.1404 120.131 95.5437 120.087 95.5437 120.038C95.5437 119.989 98.1452 119.95 101.353 119.95C104.56 119.95 107.166 119.989 107.166 120.038Z" fill="#E0E0E0"/>
<path d="M102.098 122.984H100.131V127.708H102.098V122.984Z" fill="#FAFAFA"/>
<path d="M203.92 80.0444H180.675V163.925H203.92V80.0444Z" fill="#F5F5F5"/>
<path d="M203.925 80.0444H192.302V163.695H203.925V80.0444Z" fill="#EBEBEB"/>
<path d="M191.543 71.8103H183.335V80.0445H191.543V71.8103Z" fill="#F5F5F5"/>
<path d="M191.543 71.8103H189.586V80.0445H191.543V71.8103Z" fill="#EBEBEB"/>
<path d="M178.742 80.0445V79.5627H204.603V80.0445" fill="#E0E0E0"/>
<path d="M187.234 83.636H185.268V88.3608H187.234V83.636Z" fill="#FAFAFA"/>
<path d="M192.303 90.2166C192.303 90.2659 189.701 90.3042 186.489 90.3042C183.277 90.3042 180.675 90.2659 180.675 90.2166C180.675 90.1673 183.282 90.1235 186.489 90.1235C189.696 90.1235 192.303 90.1673 192.303 90.2166Z" fill="#E0E0E0"/>
<path d="M198.958 83.636H196.991V88.3608H198.958V83.636Z" fill="#E0E0E0"/>
<path d="M204.026 90.2166C204.026 90.2659 201.425 90.3042 198.212 90.3042C195 90.3042 192.404 90.2659 192.404 90.2166C192.404 90.1673 195.005 90.1235 198.212 90.1235C201.42 90.1235 204.026 90.1673 204.026 90.2166Z" fill="#E0E0E0"/>
<path d="M198.958 93.0142H196.991V97.739H198.958V93.0142Z" fill="#E0E0E0"/>
<path d="M204.026 99.5735C204.026 99.6228 201.425 99.6611 198.212 99.6611C195 99.6611 192.404 99.6228 192.404 99.5735C192.404 99.5243 195.005 99.4805 198.212 99.4805C201.42 99.4805 204.026 99.5735 204.026 99.5735Z" fill="#E0E0E0"/>
<path d="M198.958 102.678H196.991V107.403H198.958V102.678Z" fill="#E0E0E0"/>
<path d="M204.026 109.258C204.026 109.308 201.425 109.346 198.212 109.346C195 109.346 192.404 109.308 192.404 109.258C192.404 109.209 195.005 109.165 198.212 109.165C201.42 109.165 204.026 109.209 204.026 109.258Z" fill="#E0E0E0"/>
<path d="M198.958 112.341H196.991V117.066H198.958V112.341Z" fill="#E0E0E0"/>
<path d="M204.026 118.916C204.026 118.971 201.425 119.009 198.212 119.009C195 119.009 192.404 118.971 192.404 118.916C192.404 118.861 195.005 118.828 198.212 118.828C201.42 118.828 204.026 118.867 204.026 118.916Z" fill="#E0E0E0"/>
<path d="M198.958 121.725H196.991V126.45H198.958V121.725Z" fill="#E0E0E0"/>
<path d="M204.026 128.305C204.026 128.355 201.425 128.393 198.212 128.393C195 128.393 192.404 128.355 192.404 128.305C192.404 128.256 195.005 128.212 198.212 128.212C201.42 128.212 204.026 128.256 204.026 128.305Z" fill="#E0E0E0"/>
<path d="M198.958 131.147H196.991V135.872H198.958V131.147Z" fill="#E0E0E0"/>
<path d="M198.958 140.695H196.991V145.42H198.958V140.695Z" fill="#E0E0E0"/>
<path d="M204.026 137.728C204.026 137.777 201.425 137.815 198.212 137.815C195 137.815 192.404 137.777 192.404 137.728C192.404 137.678 195.005 137.64 198.212 137.64C201.42 137.64 204.026 137.678 204.026 137.728Z" fill="#E0E0E0"/>
<path d="M187.234 93.157H185.268V97.8818H187.234V93.157Z" fill="#FAFAFA"/>
<path d="M192.303 99.7375C192.303 99.7868 189.701 99.8251 186.489 99.8251C183.277 99.8251 180.675 99.7868 180.675 99.7375C180.675 99.6882 183.282 99.6499 186.489 99.6499C189.696 99.6499 192.303 99.6882 192.303 99.7375Z" fill="#E0E0E0"/>
<path d="M187.234 102.683H185.268V107.408H187.234V102.683Z" fill="#FAFAFA"/>
<path d="M192.303 109.258C192.303 109.308 189.701 109.351 186.489 109.351C183.277 109.351 180.675 109.308 180.675 109.258C180.675 109.209 183.282 109.171 186.489 109.171C189.696 109.171 192.303 109.209 192.303 109.258Z" fill="#E0E0E0"/>
<path d="M187.234 112.203H185.268V116.928H187.234V112.203Z" fill="#FAFAFA"/>
<path d="M192.303 118.779C192.303 118.834 189.701 118.872 186.489 118.872C183.277 118.872 180.675 118.834 180.675 118.779C180.675 118.725 183.282 118.692 186.489 118.692C189.696 118.692 192.303 118.735 192.303 118.779Z" fill="#E0E0E0"/>
<path d="M187.234 121.725H185.268V126.45H187.234V121.725Z" fill="#FAFAFA"/>
<path d="M192.303 128.305C192.303 128.355 189.701 128.393 186.489 128.393C183.277 128.393 180.675 128.355 180.675 128.305C180.675 128.256 183.282 128.212 186.489 128.212C189.696 128.212 192.303 128.256 192.303 128.305Z" fill="#E0E0E0"/>
<path d="M187.234 131.25H185.268V135.975H187.234V131.25Z" fill="#FAFAFA"/>
<path d="M192.303 137.826C192.303 137.876 189.701 137.914 186.489 137.914C183.277 137.914 180.675 137.876 180.675 137.826C180.675 137.777 183.282 137.739 186.489 137.739C189.696 137.739 192.303 137.777 192.303 137.826Z" fill="#E0E0E0"/>
<path d="M187.234 140.771H185.268V145.496H187.234V140.771Z" fill="#FAFAFA"/>
<path d="M232.95 112.592H195.308V169.115H232.95V112.592Z" fill="#EBEBEB"/>
<path d="M232.945 112.592H215.297V169.115H232.945V112.592Z" fill="#E0E0E0"/>
<path d="M206.584 120.246H203.199V129.608H206.584V120.246Z" fill="#F5F5F5"/>
<path d="M206.584 156.884H203.199V166.246H206.584V156.884Z" fill="#F5F5F5"/>
<path d="M215.297 133.282C215.297 133.386 210.825 133.468 205.305 133.468C199.785 133.468 195.308 133.386 195.308 133.282C195.308 133.178 199.78 133.091 205.305 133.091C210.83 133.091 215.297 133.173 215.297 133.282Z" fill="#F5F5F5"/>
<path d="M206.584 138.702H203.199V148.064H206.584V138.702Z" fill="#F5F5F5"/>
<path d="M215.297 151.738C215.297 151.842 210.825 151.929 205.305 151.929C199.785 151.929 195.308 151.842 195.308 151.738C195.308 151.634 199.78 151.546 205.305 151.546C210.83 151.546 215.297 151.634 215.297 151.738Z" fill="#F5F5F5"/>
<path d="M222.433 120.246H219.048V129.608H222.433V120.246Z" fill="#F5F5F5"/>
<path d="M229.776 120.246H226.391V129.608H229.776V120.246Z" fill="#F5F5F5"/>
<path d="M222.433 138.007H219.048V147.369H222.433V138.007Z" fill="#F5F5F5"/>
<path d="M229.776 138.007H226.391V147.369H229.776V138.007Z" fill="#F5F5F5"/>
<path d="M222.433 155.772H219.048V165.134H222.433V155.772Z" fill="#F5F5F5"/>
<path d="M229.776 155.772H226.391V165.134H229.776V155.772Z" fill="#F5F5F5"/>
<path d="M235.777 110.622H192.476V112.658H235.777V110.622Z" fill="#E0E0E0"/>
<path d="M233.209 112.855C233.209 112.959 224.799 113.042 214.422 113.042C204.045 113.042 195.63 112.959 195.63 112.855C195.63 112.751 204.045 112.664 214.422 112.664C224.799 112.664 233.209 112.746 233.209 112.855Z" fill="#EBEBEB"/>
<path d="M110.167 170.243H75.9584L75.8093 108.689H110.018L110.167 170.243Z" fill="#EBEBEB"/>
<path d="M110.018 108.689H92.9135V170.243H110.018V108.689Z" fill="#E0E0E0"/>
<path d="M91.793 96.573H79.7137V108.689H91.793V96.573Z" fill="#EBEBEB"/>
<path d="M91.793 96.573H88.9126V108.689H91.793V96.573Z" fill="#E0E0E0"/>
<path d="M111.018 107.982H72.9576V108.689H111.018V107.982Z" fill="#E0E0E0"/>
<path d="M85.4552 113.978H82.5604V120.931H85.4552V113.978Z" fill="white"/>
<path d="M92.9136 123.662C92.9136 123.734 89.0667 123.794 84.3591 123.794C79.6514 123.794 75.819 123.728 75.819 123.662C75.819 123.597 79.6659 123.531 84.3687 123.531C89.0715 123.531 92.9136 123.58 92.9136 123.662Z" fill="#E0E0E0"/>
<path d="M102.708 113.978H99.8136V120.931H102.708V113.978Z" fill="#F5F5F5"/>
<path d="M110.167 123.662C110.167 123.734 106.32 123.794 101.612 123.794C96.9046 123.794 93.0625 123.734 93.0625 123.662C93.0625 123.591 96.9094 123.531 101.612 123.531C106.315 123.531 110.167 123.58 110.167 123.662Z" fill="#EBEBEB"/>
<path d="M102.708 127.78H99.8136V134.733H102.708V127.78Z" fill="#F5F5F5"/>
<path d="M110.167 137.459C110.167 137.531 106.32 137.591 101.612 137.591C96.9046 137.591 93.0625 137.531 93.0625 137.459C93.0625 137.388 96.9094 137.323 101.612 137.323C106.315 137.323 110.167 137.383 110.167 137.459Z" fill="#EBEBEB"/>
<path d="M102.708 141.998H99.8136V148.951H102.708V141.998Z" fill="#F5F5F5"/>
<path d="M110.167 151.677C110.167 151.749 106.32 151.809 101.612 151.809C96.9046 151.809 93.0625 151.749 93.0625 151.677C93.0625 151.606 96.9094 151.541 101.612 151.541C106.315 151.541 110.167 151.584 110.167 151.677Z" fill="#EBEBEB"/>
<path d="M102.708 156.21H99.8136V163.164H102.708V156.21Z" fill="#F5F5F5"/>
<path d="M110.167 165.896C110.167 165.967 106.32 166.027 101.612 166.027C96.9046 166.027 93.0625 165.967 93.0625 165.896C93.0625 165.824 96.9094 165.759 101.612 165.759C106.315 165.759 110.167 165.819 110.167 165.896Z" fill="#EBEBEB"/>
<path d="M85.4552 127.988H82.5604V134.941H85.4552V127.988Z" fill="white"/>
<path d="M92.9136 137.667C92.9136 137.744 89.0667 137.799 84.3591 137.799C79.6514 137.799 75.819 137.744 75.819 137.667C75.819 137.591 79.6659 137.536 84.3687 137.536C89.0715 137.536 92.9136 137.596 92.9136 137.667Z" fill="#E0E0E0"/>
<path d="M85.4552 141.998H82.5604V148.951H85.4552V141.998Z" fill="white"/>
<path d="M92.9136 151.678C92.9136 151.754 89.0667 151.814 84.3591 151.814C79.6514 151.814 75.819 151.754 75.819 151.678C75.819 151.601 79.6659 151.546 84.3687 151.546C89.0715 151.546 92.9136 151.584 92.9136 151.678Z" fill="#E0E0E0"/>
<path d="M85.4552 156.014H82.5604V162.967H85.4552V156.014Z" fill="white"/>
<path d="M92.9136 165.693C92.9136 165.764 89.0667 165.825 84.3591 165.825C79.6514 165.825 75.819 165.764 75.819 165.693C75.819 165.622 79.6659 165.562 84.3687 165.562C89.0715 165.562 92.9136 165.617 92.9136 165.693Z" fill="#E0E0E0"/>
<path d="M245.64 96.2502C245.822 94.7501 243.966 93.5128 242.572 93.3923C241.905 93.4227 241.238 93.3584 240.586 93.2007C239.225 92.6532 238.662 90.6494 237.35 90.0143C236.354 89.5326 235.21 89.9596 234.243 90.5126C233.277 91.0655 232.32 91.7608 231.247 91.8375C230.286 91.9087 229.29 91.509 228.473 92.0346C227.862 92.4233 227.54 93.2226 226.977 93.677C226.391 94.0863 225.713 94.2953 225.025 94.2793C224.339 94.2575 223.655 94.3838 223.01 94.6516C222.69 94.7924 222.418 95.0479 222.236 95.3796C222.054 95.7113 221.971 96.1013 222.001 96.4911L245.64 96.2502Z" fill="#F5F5F5"/>
<path d="M187.768 53.5845C188.052 51.2467 185.147 49.3196 182.959 49.117C181.921 49.0239 180.839 49.2046 179.858 48.8159C177.723 47.9673 176.867 44.8247 174.785 43.8228C173.227 43.0782 171.419 43.7407 169.923 44.6057C168.428 45.4707 166.923 46.5602 165.235 46.6862C163.792 46.7902 162.172 46.1715 160.907 46.9873C159.945 47.595 159.465 48.8542 158.57 49.5933C157.676 50.3324 156.579 50.4693 155.512 50.535C154.444 50.6007 153.334 50.6171 152.357 51.1208C151.381 51.6245 150.578 52.807 150.78 54.0006L187.768 53.5845Z" fill="#EBEBEB"/>
<path d="M88.8982 85.9959C89.1242 84.129 86.8113 82.5906 85.0513 82.4318C84.2243 82.3552 83.3635 82.503 82.5749 82.1909C80.8727 81.512 80.1706 79.01 78.5357 78.2107C77.2902 77.6139 75.8621 78.145 74.6599 78.8348C73.4578 79.5247 72.2556 80.3952 70.9188 80.4773C69.7503 80.5594 68.4809 80.0667 67.4566 80.7182C66.6921 81.2 66.293 82.2019 65.5909 82.7931C64.8602 83.3093 64.0125 83.5701 63.1529 83.5432C62.2963 83.5216 61.4435 83.6813 60.638 84.014C59.8639 84.4192 59.2195 85.3554 59.383 86.308L88.8982 85.9959Z" fill="#F5F5F5"/>
<path d="M71.8901 127.172C70.0219 127.223 68.2014 127.854 66.6246 128.996C65.0479 130.138 63.7747 131.748 62.9421 133.653C62.1096 135.558 61.7492 137.685 61.8999 139.806C62.0506 141.926 62.7066 143.96 63.7972 145.688L63.8934 145.847L71.1688 157.108C71.3173 157.338 71.512 157.523 71.7366 157.649C71.9611 157.775 72.2089 157.838 72.4592 157.832C72.7094 157.826 72.9548 157.752 73.1745 157.615C73.3943 157.479 73.5821 157.284 73.7222 157.048L80.2955 145.918C81.5361 143.761 82.3921 141.5 82.3921 138.839C82.3892 137.283 82.1137 135.744 81.5818 134.311C81.0498 132.877 80.272 131.58 79.294 130.493C78.316 129.407 77.1574 128.553 75.886 127.983C74.6147 127.413 73.2562 127.137 71.8901 127.172ZM72.1353 147.369C70.6079 147.369 69.1148 146.853 67.8449 145.887C66.5749 144.921 65.5851 143.547 65.0005 141.941C64.416 140.334 64.2631 138.566 64.5611 136.861C64.8591 135.155 65.5946 133.588 66.6746 132.359C67.7546 131.129 69.1307 130.292 70.6287 129.952C72.1268 129.613 73.6795 129.787 75.0906 130.453C76.5018 131.118 77.7079 132.245 78.5565 133.691C79.405 135.137 79.8579 136.837 79.8579 138.576C79.8579 140.908 79.0443 143.144 77.596 144.793C76.1478 146.442 74.1835 147.369 72.1353 147.369Z" fill="#00544F"/>
<g opacity="0.3">
<path d="M71.8901 127.172C70.0219 127.223 68.2014 127.854 66.6246 128.996C65.0479 130.138 63.7747 131.748 62.9421 133.653C62.1096 135.558 61.7492 137.685 61.8999 139.806C62.0506 141.926 62.7066 143.96 63.7972 145.688L63.8934 145.847L71.1688 157.108C71.3173 157.338 71.512 157.523 71.7366 157.649C71.9611 157.775 72.2089 157.838 72.4592 157.832C72.7094 157.826 72.9548 157.752 73.1745 157.615C73.3943 157.479 73.5821 157.284 73.7222 157.048L80.2955 145.918C81.5361 143.761 82.3921 141.5 82.3921 138.839C82.3892 137.283 82.1137 135.744 81.5818 134.311C81.0498 132.877 80.272 131.58 79.294 130.493C78.316 129.407 77.1574 128.553 75.886 127.983C74.6147 127.413 73.2562 127.137 71.8901 127.172ZM72.1353 147.369C70.6079 147.369 69.1148 146.853 67.8449 145.887C66.5749 144.921 65.5851 143.547 65.0005 141.941C64.416 140.334 64.2631 138.566 64.5611 136.861C64.8591 135.155 65.5946 133.588 66.6746 132.359C67.7546 131.129 69.1307 130.292 70.6287 129.952C72.1268 129.613 73.6795 129.787 75.0906 130.453C76.5018 131.118 77.7079 132.245 78.5565 133.691C79.405 135.137 79.8579 136.837 79.8579 138.576C79.8579 140.908 79.0443 143.144 77.596 144.793C76.1478 146.442 74.1835 147.369 72.1353 147.369Z" fill="black"/>
</g>
<path d="M71.2842 127.172C68.649 127.252 66.141 128.479 64.276 130.6C62.4111 132.721 61.3311 135.576 61.2583 138.576C61.1947 141.124 61.8707 143.626 63.1817 145.693L63.2827 145.852L70.5533 157.114C70.7009 157.348 70.8962 157.538 71.1224 157.667C71.3487 157.796 71.5991 157.861 71.8522 157.855C72.1053 157.85 72.3534 157.775 72.5753 157.636C72.7972 157.497 72.9861 157.299 73.1259 157.059L79.6993 145.929C80.9447 143.771 81.7958 141.51 81.7958 138.85C81.7943 137.292 81.5194 135.75 80.9874 134.315C80.4554 132.88 79.677 131.581 78.6978 130.493C77.7186 129.405 76.5584 128.551 75.2853 127.981C74.0122 127.41 72.6519 127.135 71.2842 127.172ZM71.5246 145.786C70.3684 145.785 69.2383 145.394 68.2774 144.662C67.3164 143.929 66.5677 142.889 66.1259 141.673C65.6841 140.456 65.569 139.118 65.7951 137.827C66.0213 136.536 66.5786 135.35 67.3965 134.419C68.2144 133.489 69.2563 132.855 70.3905 132.599C71.5246 132.342 72.7 132.475 73.7682 132.979C74.8364 133.483 75.7493 134.336 76.3916 135.431C77.0339 136.525 77.3767 137.812 77.3767 139.129C77.3761 140.003 77.2242 140.869 76.9298 141.676C76.6353 142.483 76.2041 143.217 75.6607 143.835C75.1173 144.452 74.4723 144.942 73.7627 145.276C73.053 145.61 72.2925 145.781 71.5246 145.781V145.786Z" fill="#00544F"/>
<path d="M232.993 116.086C231.567 116.121 230.178 116.6 228.973 117.469C227.769 118.338 226.796 119.565 226.16 121.018C225.523 122.471 225.247 124.094 225.362 125.712C225.476 127.33 225.977 128.882 226.809 130.2L226.886 130.32L232.43 138.899C232.543 139.07 232.69 139.208 232.859 139.301C233.028 139.394 233.214 139.441 233.402 139.436C233.589 139.432 233.774 139.377 233.939 139.276C234.105 139.175 234.247 139.031 234.354 138.856L239.364 130.375C240.361 128.801 240.919 126.922 240.966 124.982C240.963 123.799 240.754 122.629 240.351 121.539C239.947 120.449 239.357 119.461 238.615 118.633C237.873 117.805 236.994 117.154 236.029 116.716C235.064 116.279 234.032 116.065 232.993 116.086ZM233.18 131.481C232.017 131.481 230.88 131.088 229.912 130.353C228.945 129.618 228.191 128.572 227.745 127.349C227.299 126.126 227.181 124.78 227.406 123.48C227.632 122.181 228.191 120.987 229.012 120.049C229.833 119.111 230.88 118.471 232.02 118.21C233.161 117.949 234.344 118.078 235.419 118.582C236.495 119.086 237.416 119.942 238.065 121.041C238.714 122.14 239.062 123.433 239.066 124.758C239.069 125.64 238.918 126.513 238.624 127.329C238.329 128.145 237.896 128.886 237.349 129.51C236.802 130.135 236.153 130.631 235.437 130.969C234.722 131.307 233.955 131.481 233.18 131.481Z" fill="#00544F"/>
<g opacity="0.3">
<path d="M232.993 116.086C231.567 116.121 230.178 116.6 228.973 117.469C227.769 118.338 226.796 119.565 226.16 121.018C225.523 122.471 225.247 124.094 225.362 125.712C225.476 127.33 225.977 128.882 226.809 130.2L226.886 130.32L232.43 138.899C232.543 139.07 232.69 139.208 232.859 139.301C233.028 139.394 233.214 139.441 233.402 139.436C233.589 139.432 233.774 139.377 233.939 139.276C234.105 139.175 234.247 139.031 234.354 138.856L239.364 130.375C240.361 128.801 240.919 126.922 240.966 124.982C240.963 123.799 240.754 122.629 240.351 121.539C239.947 120.449 239.357 119.461 238.615 118.633C237.873 117.805 236.994 117.154 236.029 116.716C235.064 116.279 234.032 116.065 232.993 116.086ZM233.18 131.481C232.017 131.481 230.88 131.088 229.912 130.353C228.945 129.618 228.191 128.572 227.745 127.349C227.299 126.126 227.181 124.78 227.406 123.48C227.632 122.181 228.191 120.987 229.012 120.049C229.833 119.111 230.88 118.471 232.02 118.21C233.161 117.949 234.344 118.078 235.419 118.582C236.495 119.086 237.416 119.942 238.065 121.041C238.714 122.14 239.062 123.433 239.066 124.758C239.069 125.64 238.918 126.513 238.624 127.329C238.329 128.145 237.896 128.886 237.349 129.51C236.802 130.135 236.153 130.631 235.437 130.969C234.722 131.307 233.955 131.481 233.18 131.481Z" fill="black"/>
</g>
<path d="M232.531 116.085C231.107 116.124 229.719 116.604 228.517 117.475C227.315 118.345 226.344 119.573 225.709 121.025C225.074 122.477 224.8 124.099 224.915 125.715C225.03 127.332 225.53 128.883 226.362 130.199L226.434 130.32L231.973 138.899C232.087 139.074 232.235 139.215 232.406 139.312C232.577 139.408 232.766 139.456 232.957 139.451C233.148 139.447 233.335 139.391 233.503 139.287C233.671 139.183 233.814 139.035 233.921 138.855L238.932 130.375C239.927 128.8 240.483 126.921 240.528 124.982C240.526 123.797 240.317 122.623 239.912 121.531C239.507 120.439 238.915 119.45 238.171 118.621C237.426 117.793 236.544 117.142 235.575 116.706C234.607 116.271 233.572 116.06 232.531 116.085ZM232.714 130.271C231.832 130.271 230.971 129.973 230.237 129.415C229.504 128.858 228.933 128.065 228.596 127.138C228.258 126.21 228.17 125.19 228.342 124.205C228.514 123.221 228.939 122.317 229.562 121.607C230.185 120.897 230.98 120.414 231.844 120.218C232.709 120.022 233.605 120.122 234.42 120.507C235.234 120.891 235.931 121.541 236.42 122.376C236.91 123.21 237.172 124.192 237.172 125.195C237.172 125.862 237.057 126.522 236.834 127.139C236.61 127.755 236.281 128.314 235.867 128.786C235.453 129.257 234.962 129.631 234.421 129.886C233.879 130.141 233.3 130.271 232.714 130.271Z" fill="#00544F"/>
<path d="M77.5067 169.208L43.1636 266.31L107.556 254.254L154.781 266.31L203.146 254.254L267.827 268.303L233.2 169.208L194.563 158.127L155.497 166.602L115.572 158.127L77.5067 169.208Z" fill="white"/>
<path d="M77.5066 169.208L78.1365 169.016L80.0167 168.469L87.3835 166.306L115.557 158.094H115.581L155.493 166.541H155.459L194.524 158.055H194.591L233.224 169.104H233.281V169.164L267.903 268.259L267.99 268.5L267.764 268.45L234.493 261.224L203.083 254.402H203.136L154.766 266.447H154.738L107.517 254.402H107.556L43.1587 266.447L43 266.474L43.0625 266.304C53.6847 236.324 62.2969 212.048 68.2308 195.268L75.0878 175.958L76.8718 170.943C77.2758 169.815 77.4873 169.241 77.4873 169.241C77.4873 169.241 77.2902 169.826 76.8911 170.965L75.1215 176.002L68.3269 195.312L43.25 266.348L43.1491 266.206L107.556 254.128H107.599L154.819 266.173H154.771L203.136 254.128H203.16L234.57 260.95L267.841 268.177L267.701 268.368L233.079 169.273L233.156 169.35L194.524 158.258H194.591L155.512 166.695H155.478L115.567 158.198L87.4219 166.366L80.0407 168.496L78.1509 169.043L77.5066 169.208Z" fill="#263238"/>
<path d="M79.5118 171.814L49.1743 261.421L107.272 250.668L155.497 263.375L203.146 250.345L262.388 263.375L231.195 171.814L195.135 161.713L155.497 170.188L114.999 161.713L79.5118 171.814Z" fill="white"/>
<path d="M52.5452 251.468L98.7222 239.286L97.02 227.964L100.857 225.211L94.885 198.762L76.4199 180.941L52.5452 251.468Z" fill="#455A64"/>
<path d="M49.1743 261.421L51.4247 254.775L128.853 234.293L133.056 247.471L131.695 250.132L117.154 253.275L107.272 250.669L49.1743 261.421Z" fill="#EBEBEB"/>
<path d="M133.056 233.017L136.128 246.053L145.048 250.465L157.733 244.049L184.349 235.223L176.045 220.978L133.056 233.017Z" fill="#EBEBEB"/>
<path d="M102.131 237.846L116.519 234.293L113.648 223.65L103.165 226.529L100.376 228.774L102.131 237.846Z" fill="#E0E0E0"/>
<path d="M99.1934 202.572L104.416 222.09L112.581 220.042L111.109 212.547L129.069 207.965L99.1934 202.572Z" fill="#455A64"/>
<path d="M77.7806 176.933L100.376 197.584L130.372 204.061L162.369 195.005L147.765 168.567L114.999 161.713L79.5117 171.814L77.7806 176.933Z" fill="#EBEBEB"/>
<path d="M152.136 169.481L199.044 251.467L203.146 250.345L157.743 169.706L155.497 170.188L152.136 169.481Z" fill="#EBEBEB"/>
<path d="M114.129 214.611L120.072 234.293L172.842 218.942L163.076 200.015L114.129 214.611Z" fill="#E0E0E0"/>
<path d="M143.486 260.211L144 259.34L147.467 253.477L155.781 250.465L161.503 245.56L186.301 237.846L194.005 252.842L155.497 263.375" fill="#E0E0E0"/>
<path d="M187.417 163.361L199.842 179.101L231.195 171.814L195.135 161.713L187.417 163.361Z" fill="#E0E0E0"/>
<path d="M237.792 191.179L214.768 198.466L203.146 180.941L231.978 174.125L237.792 191.179Z" fill="#E0E0E0"/>
<path d="M160.205 169.175L184.349 208.66L212.21 199.555L184.349 164.018L160.205 169.175Z" fill="#EBEBEB"/>
<path d="M227.699 255.744L255.555 243.321L262.388 263.376L227.699 255.744Z" fill="#E0E0E0"/>
<path d="M198.563 206.3L213.701 201.805L229.69 223.65L214.129 229.53L198.563 206.3Z" fill="#455A64"/>
<path d="M217.11 200.015L233.955 222.002L246.64 217.151L238.297 192.667L217.11 200.015Z" fill="#E0E0E0"/>
<path d="M229.689 250.614L217.11 230.745L247.515 219.714L253.689 237.846L249.727 242.385L229.689 250.614Z" fill="#455A64"/>
<path d="M185.825 211.562L208.936 251.468L223.169 254.747L225.852 253.351L196.568 207.877L185.825 211.562Z" fill="#E0E0E0"/>
<path d="M91.115 241.296L85.3591 210.472L65.0572 214.513L52.5452 251.468L91.115 241.296Z" fill="#E0E0E0"/>
<path d="M109.782 163.196V177.31L114.129 177.935L126.266 194.031L136.701 192.667L141.668 200.863L130.372 204.061L100.376 197.584L77.7806 176.933L79.5117 171.814L109.782 163.196Z" fill="#455A64"/>
<path d="M173.236 166.514L190.283 194.836L204.968 190.319L184.349 164.018L173.236 166.514Z" fill="#E0E0E0"/>
<path d="M223.28 195.772L217.11 184.795L233.786 179.429L237.792 191.179L223.28 195.772Z" fill="#EBEBEB"/>
<path d="M198.563 233.559L206.637 230.378L222.294 254.544L208.936 251.468L198.563 233.559Z" fill="#EBEBEB"/>
<path d="M124.102 255.103L131.608 254.063L134.109 249.896L143.486 253.252L141.033 259.565L124.102 255.103Z" fill="#455A64"/>
<path d="M79.5118 171.841L81.8487 171.157L88.7154 169.186L114.985 161.669H115.009L155.512 170.117H155.478L195.116 161.625H195.159L231.223 171.715H231.276V171.781C240.85 199.763 251.395 230.729 262.503 263.326L262.585 263.567L262.364 263.518L232.642 256.981L203.122 250.482H203.175L155.526 263.512H155.469L107.248 250.794H107.291L49.1887 261.525L49.0348 261.552L49.0877 261.383C58.4789 233.707 66.0813 211.304 71.3323 195.821C73.9626 188.091 76.0015 182.085 77.3863 178.011L78.9684 173.385C79.3242 172.34 79.5118 171.814 79.5118 171.814C79.5118 171.814 79.3338 172.361 78.9828 173.407L77.4248 178.05L71.4092 195.898L49.2608 261.459L49.1598 261.322L107.253 250.548H107.296L155.521 263.271H155.469L203.117 250.236H203.146L232.69 256.702L262.393 263.239L262.253 263.43C251.15 230.827 240.615 199.884 231.069 171.863L231.146 171.94L195.082 161.828H195.125L155.483 170.281H155.449L114.961 161.784L88.7539 169.219L81.8728 171.162L79.5118 171.841Z" fill="#263238"/>
<g opacity="0.2">
<path d="M154.781 266.31L155.497 166.602L115.571 158.127L107.556 254.254L154.781 266.31Z" fill="black"/>
</g>
<g opacity="0.2">
<path d="M194.562 158.127L203.146 254.254L267.826 268.303L233.2 169.208L194.562 158.127Z" fill="black"/>
</g>
<path d="M155.805 72.2479C127.915 72.9871 105.166 98.8722 104.502 130.626C104.208 143.661 107.68 156.446 114.384 167.018L114.898 167.812L114.97 167.927L152.189 225.566C152.948 226.742 153.945 227.692 155.095 228.337C156.244 228.982 157.514 229.303 158.795 229.272C160.077 229.242 161.333 228.861 162.458 228.161C163.583 227.462 164.543 226.465 165.259 225.254L198.919 168.315C205.286 157.256 209.652 145.704 209.652 132.083C209.652 124.1 208.25 116.198 205.527 108.842C202.805 101.486 198.818 94.8243 193.801 89.2489C188.783 83.6735 182.837 79.2971 176.312 76.3775C169.786 73.4578 162.814 72.0537 155.805 72.2479ZM157.055 175.608C149.238 175.609 141.597 172.971 135.097 168.027C128.597 163.083 123.53 156.056 120.538 147.834C117.546 139.611 116.763 130.564 118.287 121.835C119.812 113.106 123.576 105.087 129.103 98.7936C134.63 92.5 141.672 88.2138 149.338 86.4771C157.005 84.7404 164.952 85.6312 172.174 89.0368C179.396 92.4424 185.569 98.2099 189.912 105.61C194.254 113.01 196.572 121.71 196.572 130.61C196.572 142.543 192.409 153.988 184.998 162.426C177.588 170.865 167.536 175.606 157.055 175.608Z" fill="#00544F"/>
<g opacity="0.3">
<path d="M155.805 72.2479C127.915 72.9871 105.166 98.8722 104.502 130.626C104.208 143.661 107.68 156.446 114.384 167.018L114.898 167.812L114.97 167.927L152.189 225.566C152.948 226.742 153.945 227.692 155.095 228.337C156.244 228.982 157.514 229.303 158.795 229.272C160.077 229.242 161.333 228.861 162.458 228.161C163.583 227.462 164.543 226.465 165.259 225.254L198.919 168.315C205.286 157.256 209.652 145.704 209.652 132.083C209.652 124.1 208.25 116.198 205.527 108.842C202.805 101.486 198.818 94.8243 193.801 89.2489C188.783 83.6735 182.837 79.2971 176.312 76.3775C169.786 73.4578 162.814 72.0537 155.805 72.2479ZM157.055 175.608C149.238 175.609 141.597 172.971 135.097 168.027C128.597 163.083 123.53 156.056 120.538 147.834C117.546 139.611 116.763 130.564 118.287 121.835C119.812 113.106 123.576 105.087 129.103 98.7936C134.63 92.5 141.672 88.2138 149.338 86.4771C157.005 84.7404 164.952 85.6312 172.174 89.0368C179.396 92.4424 185.569 98.2099 189.912 105.61C194.254 113.01 196.572 121.71 196.572 130.61C196.572 142.543 192.409 153.988 184.998 162.426C177.588 170.865 167.536 175.606 157.055 175.608Z" fill="black"/>
</g>
<path d="M152.689 72.2479C124.799 72.9871 102.05 98.8722 101.386 130.626C101.092 143.661 104.564 156.446 111.268 167.018L111.782 167.812L111.854 167.927L149.073 225.566C149.832 226.742 150.829 227.692 151.979 228.337C153.128 228.982 154.398 229.303 155.679 229.272C156.96 229.242 158.217 228.861 159.342 228.161C160.467 227.462 161.427 226.465 162.143 225.254L195.803 168.315C202.17 157.256 206.536 145.704 206.536 132.083C206.536 124.1 205.134 116.198 202.411 108.842C199.689 101.486 195.702 94.8243 190.685 89.2489C185.667 83.6735 179.721 79.2971 173.195 76.3775C166.67 73.4578 159.698 72.0537 152.689 72.2479ZM153.939 175.608C146.122 175.609 138.481 172.971 131.981 168.027C125.481 163.083 120.414 156.056 117.422 147.834C114.43 139.611 113.647 130.564 115.171 121.835C116.696 113.106 120.459 105.087 125.987 98.7936C131.514 92.5 138.556 88.2138 146.222 86.4771C153.889 84.7404 161.836 85.6312 169.058 89.0368C176.28 92.4424 182.452 98.2099 186.795 105.61C191.138 113.01 193.456 121.71 193.456 130.61C193.456 142.543 189.293 153.988 181.882 162.426C174.472 170.865 164.42 175.606 153.939 175.608Z" fill="#00544F"/>
<g opacity="0.3">
<path d="M176.675 164.549C176.04 165.365 134.248 177.93 133.618 178.745C141.63 181.527 151.41 183.947 159.787 183.394C164.504 183.087 169.404 182.129 173.155 178.822C176.906 175.515 178.944 169.268 176.675 164.549Z" fill="black"/>
</g>
<path d="M136.763 73.7429C135.557 75.2026 134.679 76.9726 134.203 78.902C133.728 80.8314 133.669 82.8631 134.032 84.824C134.397 86.7183 135.128 88.8316 134.215 90.4686C133.301 92.1056 131.175 92.3848 130.324 94.0437C129.315 95.9873 130.661 98.4236 130.493 100.69C130.384 101.747 129.948 102.725 129.263 103.449C128.579 104.174 127.69 104.597 126.756 104.643C129.166 106.304 131.932 107.175 134.748 107.161C135.325 106.023 135.901 104.884 136.475 103.745C135.811 104.955 136.234 106.636 137.143 107.616C138.052 108.596 139.321 109.006 140.557 109.258C143.522 109.801 146.556 109.554 149.424 108.539C152.291 107.524 154.913 105.767 157.084 103.406" fill="#263238"/>
<path d="M170.481 85.6235C169.88 84.222 169.005 82.9737 168.558 81.5065C167.548 78.3584 168.485 74.4767 166.74 71.7776C165.499 69.8505 163.278 69.1661 161.205 68.7884C159.133 68.4106 156.935 68.1588 155.252 66.7408C154.016 65.6951 153.194 64.1183 151.963 63.0726C150.208 61.578 147.857 61.3535 145.673 61.5451C143.49 61.7367 141.144 62.3445 139.292 63.7953C137.441 65.2461 136.027 67.5948 135.979 70.1571C135.955 71.4053 136.244 72.6646 136.051 73.8909C135.84 75.2432 135.09 76.3929 134.671 77.685C134.278 79.0719 134.3 80.5686 134.735 81.9393C135.171 83.3101 135.994 84.4771 137.076 85.2567L155.108 105.278C158.474 106.143 166.052 103.236 168.197 100.143C170.342 97.0496 171.991 89.1713 170.481 85.6235Z" fill="#263238"/>
<path d="M137.095 82.3383C137.095 77.1427 139.764 70.5729 144.308 70.7973L158.685 73.8578C159.354 73.8914 159.987 74.2092 160.46 74.7484C160.933 75.2877 161.211 76.0092 161.239 76.7704L161.864 115.73H161.96C161.96 115.73 159.364 126.92 149.823 124.265C147.929 123.717 146.938 121.495 146.457 119.146H146.366C146.342 118.861 146.327 118.598 146.308 118.33C146.023 116.574 145.903 114.788 145.947 113.003C145.741 109.866 145.673 108.579 145.673 108.623C145.673 108.667 139.802 107.944 138.124 99.398C137.292 95.1933 137.095 88.1143 137.095 82.3383Z" fill="#FFBE9D"/>
<path d="M150.266 87.6657C150.271 87.8095 150.301 87.9508 150.353 88.0815C150.406 88.2122 150.482 88.3297 150.574 88.4274C150.667 88.525 150.776 88.6008 150.895 88.6505C151.014 88.7002 151.14 88.7227 151.266 88.7168C151.391 88.7213 151.516 88.6969 151.633 88.6451C151.75 88.5934 151.856 88.5154 151.946 88.4157C152.036 88.3161 152.107 88.1968 152.155 88.0651C152.204 87.9334 152.228 87.792 152.228 87.6492C152.223 87.5054 152.193 87.3641 152.14 87.2334C152.087 87.1027 152.012 86.9852 151.919 86.8875C151.826 86.7899 151.717 86.7141 151.599 86.6644C151.48 86.6148 151.354 86.5922 151.227 86.5981C151.102 86.5937 150.977 86.618 150.86 86.6698C150.744 86.7215 150.637 86.7996 150.547 86.8992C150.458 86.9989 150.386 87.1181 150.338 87.2498C150.29 87.3815 150.265 87.5229 150.266 87.6657Z" fill="#263238"/>
<path d="M140.336 88.5301C140.341 88.6739 140.371 88.8153 140.424 88.946C140.476 89.0767 140.552 89.1942 140.644 89.2918C140.737 89.3894 140.846 89.4653 140.965 89.5149C141.084 89.5646 141.21 89.5872 141.336 89.5813C141.463 89.5858 141.59 89.5606 141.709 89.5072C141.827 89.4538 141.935 89.3733 142.025 89.2707C142.115 89.1681 142.186 89.0456 142.233 88.9107C142.28 88.7758 142.302 88.6313 142.298 88.4863C142.286 88.1968 142.175 87.9242 141.987 87.7282C141.8 87.5321 141.552 87.4287 141.298 87.4406C141.17 87.4353 141.044 87.4598 140.925 87.5126C140.807 87.5654 140.699 87.6453 140.609 87.7475C140.519 87.8497 140.448 87.9719 140.401 88.1065C140.354 88.2411 140.332 88.3853 140.336 88.5301Z" fill="#263238"/>
<path d="M138.249 86.0832C138.379 86.2639 139.211 85.481 140.341 85.4864C141.471 85.4919 142.307 86.2529 142.437 86.0668C142.5 85.9846 142.37 85.6562 142.009 85.3003C141.538 84.8536 140.944 84.6077 140.331 84.605C139.718 84.6176 139.128 84.8776 138.667 85.3386C138.331 85.6671 138.186 86.0011 138.249 86.0832Z" fill="#263238"/>
<path d="M148.818 85.7878C148.972 85.952 149.78 85.0815 150.977 84.9501C152.175 84.8187 153.136 85.4538 153.252 85.2622C153.309 85.1746 153.146 84.8625 152.728 84.5614C152.175 84.1812 151.528 84.0177 150.886 84.0961C150.247 84.1696 149.648 84.4836 149.184 84.9885C148.842 85.3772 148.741 85.7166 148.818 85.7878Z" fill="#263238"/>
<path d="M145.625 94.4981C145.062 94.3439 144.484 94.2686 143.904 94.2736C143.639 94.2736 143.38 94.2189 143.327 94.0108C143.284 93.6987 143.328 93.3793 143.452 93.0965C143.663 92.3465 143.885 91.5526 144.115 90.7259C145.034 87.3479 145.678 84.5831 145.558 84.5393C145.438 84.4955 144.596 87.2056 143.683 90.5617C143.461 91.3939 143.255 92.2041 143.053 92.9487C142.904 93.3278 142.879 93.7547 142.981 94.1532C143.027 94.2594 143.095 94.3517 143.179 94.423C143.262 94.4943 143.359 94.5425 143.461 94.5638C143.619 94.6013 143.781 94.6142 143.942 94.6021C144.505 94.6487 145.07 94.6138 145.625 94.4981Z" fill="#263238"/>
<path d="M145.678 108.645C149.244 108.449 152.693 107.132 155.642 104.84C155.642 104.84 153.507 110.945 145.871 110.677L145.678 108.645Z" fill="#EB996E"/>
<path d="M146.227 97.3394C146.41 97.0399 146.657 96.7983 146.944 96.6374C147.232 96.4765 147.551 96.4016 147.871 96.4196C148.103 96.4286 148.332 96.4898 148.543 96.5998C148.754 96.7097 148.944 96.8662 149.102 97.0602C149.253 97.2496 149.349 97.4872 149.377 97.7408C149.406 97.9944 149.365 98.2518 149.261 98.4782C149.104 98.7036 148.892 98.8707 148.651 98.9585C148.41 99.0462 148.152 99.0505 147.91 98.9709C147.405 98.806 146.934 98.5287 146.525 98.1552C146.401 98.071 146.293 97.9593 146.207 97.8267C146.168 97.7616 146.146 97.6842 146.146 97.6049C146.146 97.5257 146.168 97.4483 146.207 97.3832" fill="#00544F"/>
<path d="M148.751 95.1058C148.578 95.1058 148.645 96.3979 147.727 97.3834C146.808 98.3689 145.587 98.3141 145.587 98.4784C145.587 98.5605 145.871 98.7083 146.385 98.6864C147.051 98.648 147.683 98.3459 148.174 97.8323C148.64 97.3355 148.921 96.6532 148.958 95.9271C148.972 95.4015 148.828 95.0894 148.751 95.1058Z" fill="#263238"/>
<path d="M148.429 81.7579C148.554 82.0754 149.588 81.8454 150.833 81.9276C152.078 82.0097 153.083 82.3163 153.237 82.0152C153.3 81.8728 153.112 81.5772 152.694 81.2925C152.138 80.9482 151.521 80.7517 150.889 80.7175C150.257 80.6834 149.626 80.8126 149.044 81.0954C148.583 81.3363 148.371 81.6046 148.429 81.7579Z" fill="#263238"/>
<path d="M138.84 82.4315C139.062 82.6889 139.869 82.3494 140.86 82.2618C141.851 82.1742 142.702 82.3166 142.88 82.0155C142.957 81.8731 142.807 81.6103 142.428 81.3804C141.908 81.1003 141.331 80.9885 140.759 81.0574C140.187 81.1042 139.637 81.3317 139.172 81.7143C138.836 82.0209 138.739 82.3056 138.84 82.4315Z" fill="#263238"/>
<path d="M161.893 74.6023C161.051 73.5073 159.729 73.0748 158.479 72.7408C153.08 71.3098 147.552 70.6132 142.009 70.6659C141.49 72.0455 142.327 73.677 143.452 74.438C144.577 75.199 145.947 75.3578 147.231 75.6808C148.515 76.0038 149.871 76.6061 150.545 77.8708C151.261 79.245 151.025 81.0407 151.675 82.4532C152.8 84.8841 156.036 85.1907 157.147 87.6434C157.988 89.4884 157.257 91.7057 157.262 93.7862C157.263 94.8418 157.462 95.885 157.845 96.8462C158.228 97.8074 158.787 98.6645 159.484 99.3603C160.181 100.056 161.001 100.575 161.888 100.881C162.775 101.188 163.71 101.276 164.629 101.139C164.094 93.7369 163.561 86.3367 163.032 78.9384C162.927 77.4273 162.778 75.7684 161.893 74.6023Z" fill="#263238"/>
<path d="M177.16 91.076C176.011 90.2001 174.626 89.5048 174.035 88.0813C173.179 86.0118 174.39 83.2196 173.164 81.4075C172.049 79.765 169.413 80.2632 168.356 78.5605C167.528 77.2301 168.12 75.8231 167.716 74.6186C167.312 73.4142 165.605 72.5437 164.499 72.8722L157.483 88.8095C157.267 93.8135 156.762 96.54 158.031 99.2445C158.729 100.728 159.575 102.146 159.955 103.767C160.335 105.387 160.215 107.314 159.152 108.481C164.47 108.108 169.019 104.183 173.207 100.422L177.636 96.4414C178.127 96.0712 178.529 95.5667 178.805 94.9742C179.367 93.5507 178.305 91.952 177.16 91.076Z" fill="#263238"/>
<path d="M173.174 98.9329C173 99.0271 172.818 99.0988 172.63 99.1465C172.088 99.2996 171.527 99.3441 170.971 99.2779C170.087 99.181 169.24 98.8224 168.514 98.2376C167.551 97.4375 166.869 96.273 166.591 94.9527C166.418 94.1933 166.38 93.4021 166.48 92.6259C166.623 91.8078 166.859 91.0145 167.182 90.2662C167.529 89.4861 167.774 88.6524 167.908 87.7916C167.979 87.3512 167.961 86.8985 167.858 86.4666C167.755 86.0346 167.569 85.6344 167.312 85.2951C166.745 84.6436 165.831 84.6052 164.961 84.3589C164.489 84.2505 164.057 83.9834 163.72 83.5924C163.404 83.1632 163.211 82.6339 163.167 82.0759C163.042 80.9809 163.331 79.8859 163.379 78.8621C163.423 78.3424 163.362 77.8181 163.201 77.3292C163.021 76.8533 162.699 76.4653 162.292 76.2342C161.455 75.736 160.474 75.7907 159.527 75.8509C158.566 75.9637 157.595 75.7999 156.704 75.3746C155.844 74.9433 155.104 74.2522 154.565 73.3763C154.093 72.5225 153.742 71.5895 153.526 70.6115C153.322 69.71 153.036 68.8349 152.675 68C152.301 67.2436 151.789 66.5866 151.174 66.0728C150.154 65.2219 148.922 64.7631 147.657 64.7631C146.392 64.7631 145.16 65.2219 144.139 66.0728C143.431 66.6381 142.817 67.3426 142.327 68.1533C141.917 68.8542 141.581 69.6076 141.326 70.398C141.33 70.342 141.339 70.2868 141.355 70.2337C141.384 70.1297 141.418 69.9655 141.485 69.7684C141.673 69.1733 141.921 68.6055 142.226 68.0766C142.709 67.2278 143.323 66.4858 144.038 65.8867C144.985 65.0995 146.106 64.6309 147.275 64.5344C148.712 64.4374 150.136 64.8988 151.314 65.8429C151.964 66.3771 152.505 67.0643 152.901 67.8576C153.275 68.709 153.57 69.6026 153.781 70.5239C153.996 71.4662 154.336 72.3654 154.791 73.1902C155.303 74.0109 156.001 74.658 156.81 75.0626C157.658 75.4555 158.579 75.6004 159.489 75.4841C160.45 75.4294 161.474 75.3527 162.407 75.9057C162.881 76.1717 163.254 76.6224 163.46 77.1759C163.641 77.7128 163.71 78.2898 163.662 78.8621C163.605 79.9571 163.326 81.0083 163.441 82.0211C163.478 82.5086 163.646 82.9713 163.922 83.346C164.221 83.6855 164.6 83.9194 165.014 84.0194C165.432 84.1453 165.87 84.2056 166.302 84.337C166.749 84.4485 167.16 84.6943 167.495 85.0487C167.779 85.4242 167.987 85.8673 168.101 86.3456C168.216 86.824 168.236 87.3255 168.158 87.8135C168.017 88.7037 167.761 89.5652 167.399 90.3703C167.075 91.0992 166.839 91.8745 166.697 92.6752C166.597 93.4154 166.626 94.1708 166.783 94.898C167.048 96.1637 167.695 97.2834 168.61 98.0624C169.309 98.6399 170.125 99.0054 170.981 99.1246C171.716 99.2234 172.461 99.1583 173.174 98.9329Z" fill="#455A64"/>
<path d="M178.925 87.4849C179.031 87.6178 179.111 87.7744 179.161 87.9448C179.307 88.4417 179.291 88.9817 179.117 89.4668C178.996 89.8209 178.8 90.1351 178.545 90.3811C178.234 90.669 177.857 90.8494 177.458 90.9012C176.976 90.968 176.486 90.8822 176.043 90.6534C175.601 90.4245 175.222 90.0613 174.948 89.6036C174.629 89.076 174.423 88.4703 174.347 87.8353C174.283 87.153 174.327 86.4632 174.477 85.7986C174.732 84.4354 175.338 83.0612 175.165 81.5282C175.146 81.1521 175.06 80.7842 174.912 80.4472C174.764 80.1102 174.557 79.8111 174.304 79.5682C173.705 79.1526 172.988 79.0172 172.304 79.1905C171.544 79.3782 170.761 79.4116 169.991 79.289C169.581 79.1688 169.215 78.9067 168.942 78.539C168.681 78.1676 168.494 77.736 168.394 77.2743C168.25 76.3864 168.205 75.4814 168.26 74.5806C168.271 73.7378 168.125 72.9019 167.832 72.1279C167.273 70.6539 166.241 69.4787 164.946 68.843C163.711 68.2408 162.379 68.3667 161.181 68.4762C160.049 68.6588 158.898 68.6367 157.772 68.4105C156.847 68.1754 155.973 67.7283 155.204 67.0965C154.625 66.6261 154.111 66.0595 153.68 65.4157C153.302 64.8774 153.011 64.2677 152.819 63.6145C153.096 64.2163 153.417 64.7897 153.781 65.3281C154.804 66.7742 156.231 67.7771 157.825 68.1696C158.931 68.3649 160.056 68.3649 161.162 68.1696C162.359 68.0491 163.739 67.9013 165.062 68.5254C166.431 69.1825 167.529 70.4104 168.13 71.9582C168.441 72.7751 168.596 73.6576 168.587 74.5478C168.533 75.4192 168.576 76.2949 168.716 77.1538C168.78 77.5629 168.942 77.9439 169.184 78.255C169.425 78.5661 169.738 78.7951 170.087 78.9167C170.82 79.028 171.565 78.9947 172.289 78.8182C173.05 78.6313 173.844 78.7925 174.501 79.2671C174.784 79.5386 175.015 79.8728 175.18 80.2494C175.345 80.6259 175.442 81.0368 175.463 81.4571C175.53 82.2352 175.459 83.0207 175.256 83.7675C175.088 84.4901 174.881 85.1635 174.742 85.8315C174.589 86.462 174.542 87.1193 174.602 87.7696C174.667 88.358 174.854 88.9207 175.145 89.412C175.394 89.8393 175.741 90.1813 176.147 90.4013C176.554 90.6212 177.006 90.7108 177.454 90.6603C177.822 90.6184 178.172 90.459 178.463 90.2004C178.707 89.9797 178.898 89.6938 179.021 89.3682C179.198 88.9112 179.231 88.3994 179.117 87.9174C179.06 87.7696 178.996 87.6252 178.925 87.4849Z" fill="#263238"/>
<path d="M123.905 99.9186C123.815 100.452 123.888 101.004 124.111 101.484C124.236 101.761 124.412 102.003 124.628 102.192C124.845 102.381 125.095 102.514 125.362 102.579C125.715 102.64 126.077 102.587 126.406 102.426C126.734 102.266 127.017 102.004 127.223 101.671C127.452 101.279 127.557 100.809 127.521 100.34C127.472 99.8225 127.34 99.3196 127.131 98.8565C126.727 97.8874 126.021 96.8746 125.944 95.5333C125.902 94.8544 125.986 94.1732 126.188 93.5331C126.391 92.8931 126.709 92.3082 127.122 91.8158C127.554 91.2952 128.07 90.8734 128.641 90.573C129.227 90.2785 129.845 90.0741 130.478 89.9653C131.088 89.8591 131.689 89.6887 132.272 89.4562C132.816 89.2335 133.274 88.7992 133.565 88.2298C133.813 87.6543 133.914 87.0115 133.859 86.3738C133.811 85.7482 133.688 85.1329 133.493 84.5452C133.132 83.3845 132.671 82.2677 132.589 81.1125C132.512 80.0492 132.715 78.9839 133.171 78.052C133.564 77.3081 134.078 76.656 134.686 76.1304C135.126 75.7307 135.541 75.2952 135.926 74.8273C136.244 74.4202 136.484 73.9432 136.633 73.4258C136.633 73.4258 136.633 73.4641 136.633 73.5353C136.621 73.6418 136.598 73.7464 136.566 73.8473C136.448 74.2383 136.267 74.6005 136.032 74.9149C135.657 75.4036 135.249 75.8576 134.811 76.2727C134.231 76.7976 133.742 77.4398 133.368 78.167C132.949 79.0594 132.768 80.0719 132.849 81.0796C132.935 82.1746 133.387 83.2696 133.767 84.4302C133.975 85.0451 134.106 85.6901 134.157 86.3464C134.221 87.0481 134.109 87.7562 133.834 88.3886C133.511 89.0301 133.001 89.5222 132.392 89.7792C131.791 90.0259 131.171 90.2091 130.541 90.3267C129.933 90.431 129.339 90.6262 128.776 90.907C128.234 91.1849 127.744 91.579 127.333 92.0677C126.947 92.5249 126.648 93.0686 126.456 93.6642C126.264 94.2599 126.183 94.8945 126.218 95.5278C126.275 96.7541 126.934 97.7177 127.352 98.747C127.571 99.2452 127.704 99.7856 127.747 100.34C127.786 100.869 127.66 101.396 127.391 101.829C127.159 102.195 126.842 102.478 126.476 102.648C126.109 102.817 125.708 102.865 125.318 102.787C124.853 102.652 124.445 102.334 124.166 101.889C123.887 101.444 123.755 100.901 123.794 100.357C123.807 100.204 123.844 100.055 123.905 99.9186Z" fill="#263238"/>
<path d="M125.66 133.304C125.66 133.304 126.468 125.94 129.584 122.261C132.7 118.582 145.741 113.972 145.741 113.972C145.741 113.972 146.279 119.222 149.405 120.487C152.718 121.834 156.459 121.33 158.883 118.122C160.348 116.066 161.378 113.653 161.893 111.07C161.893 111.07 177.468 112.713 180.007 117.563C182.546 122.414 185.83 141.264 185.83 141.264L171.27 144.784L173.251 177.228H134.58L135.335 146.777L124.804 148.491L125.66 133.304Z" fill="#455A64"/>
<path d="M168.399 145.825C168.353 145.586 168.335 145.341 168.346 145.097C168.346 144.626 168.346 143.942 168.346 143.104C168.346 141.418 168.37 139.096 168.418 136.534C168.466 133.972 168.524 131.645 168.586 129.964C168.615 129.121 168.644 128.442 168.673 127.972C168.67 127.726 168.697 127.48 168.755 127.243C168.797 127.483 168.813 127.728 168.803 127.972C168.803 128.442 168.803 129.127 168.803 129.964C168.803 131.651 168.779 133.972 168.731 136.534C168.683 139.096 168.625 141.423 168.562 143.104C168.534 143.942 168.5 144.621 168.476 145.091C168.481 145.339 168.456 145.586 168.399 145.825Z" fill="#263238"/>
<path d="M131.748 132.466C131.839 132.439 132.748 135.751 133.777 139.819C134.806 143.887 135.575 147.243 135.484 147.27C135.393 147.298 134.489 143.985 133.455 139.923C132.421 135.861 131.661 132.499 131.748 132.466Z" fill="#263238"/>
<path d="M178.401 116.37C178.401 116.436 177.708 116.584 176.646 117.044C173.858 118.258 171.538 120.557 170.096 123.531C169.548 124.665 169.322 125.437 169.265 125.415C169.276 125.227 169.313 125.042 169.375 124.867C169.51 124.369 169.681 123.884 169.885 123.417C170.562 121.867 171.5 120.486 172.648 119.351C173.795 118.216 175.127 117.35 176.569 116.803C177.003 116.635 177.448 116.509 177.901 116.425C178.063 116.372 178.233 116.353 178.401 116.37Z" fill="#263238"/>
<path d="M129.353 123.745C129.439 123.745 129.747 124.747 130.036 126.033C130.324 127.32 130.483 128.388 130.392 128.415C130.3 128.442 129.997 127.413 129.709 126.126C129.42 124.84 129.261 123.772 129.353 123.745Z" fill="#263238"/>
<path d="M183.262 141.861C183.262 141.861 178.901 167.079 178.401 169.236C177.901 171.393 177.098 177.202 171.813 178.406C164.682 180.048 136.681 178.893 136.681 178.893L141.971 171.283L166.471 163.46L169.837 145.113L183.262 141.861Z" fill="#FFBE9D"/>
<path d="M141.504 167.023C141.602 167.202 141.672 167.398 141.711 167.604C141.855 168.153 141.948 168.719 141.99 169.29C142.138 171.187 141.79 173.092 140.99 174.765C140.564 175.697 140.025 176.556 139.389 177.316C138.86 177.933 138.222 178.417 137.518 178.734C137.045 178.937 136.55 179.064 136.047 179.112C135.864 179.146 135.677 179.146 135.494 179.112C136.149 178.974 136.793 178.771 137.417 178.504C138.074 178.169 138.665 177.689 139.158 177.092C139.758 176.346 140.271 175.516 140.687 174.623C141.457 173.003 141.823 171.174 141.745 169.334C141.697 167.888 141.442 167.045 141.504 167.023Z" fill="#EB996E"/>
<path d="M118.058 137.18C118.058 137.18 122.005 152.307 123.64 158.844C125.381 165.786 129.185 181.554 137.292 178.756C143.461 176.621 141.649 167.522 141.649 167.522L135.335 146.75L130.425 147.686L125.66 133.676L118.058 137.18Z" fill="#FFBE9D"/>
<path d="M139.49 168.179C139.71 167.052 139.71 165.884 139.49 164.757C139.229 163.544 138.783 162.394 138.172 161.357C137.402 160.091 136.547 158.896 135.614 157.782C134.677 156.647 133.818 155.432 133.046 154.147C132.429 153.086 131.89 151.969 131.435 150.807C131.127 150.026 130.864 149.223 130.647 148.403C130.547 148.108 130.482 147.799 130.454 147.484C130.578 147.764 130.683 148.055 130.767 148.354C130.959 148.902 131.248 149.723 131.652 150.692C132.129 151.825 132.682 152.914 133.306 153.949C134.082 155.21 134.937 156.405 135.864 157.525C136.809 158.653 137.668 159.871 138.432 161.165C139.054 162.25 139.492 163.456 139.725 164.724C139.875 165.577 139.875 166.455 139.725 167.308C139.687 167.538 139.63 167.763 139.557 167.982C139.543 168.051 139.52 168.117 139.49 168.179Z" fill="#EB996E"/>
<path d="M125.66 133.676C125.66 133.676 125.689 127.654 125.222 125.935L121.472 116.397C121.472 116.397 120.51 115.724 120.029 117.624C119.548 119.524 121.029 121.484 121.029 121.484L121.145 123.98L119.644 122.568L116.726 116.337C116.726 116.337 114.711 111.799 114.191 112.505C113.672 113.211 113.84 114.695 114.706 116.638L116.677 121.084C116.677 121.084 116.976 121.872 115.942 120.728C114.908 119.584 112.662 114.043 112.196 113.348C111.729 112.653 111.095 110.611 110.09 111.087C109.085 111.563 110.373 113.983 110.373 113.983L113.59 122.195C113.59 122.195 111.725 119.086 111.388 118.56C111.051 118.034 110.272 116.255 109.662 115.346C109.051 114.437 108.383 114.087 107.94 114.306C107.724 114.395 107.546 114.574 107.443 114.807C107.339 115.04 107.317 115.309 107.382 115.56L110.821 122.349C110.821 122.349 112.537 125.398 112.537 125.634C112.537 125.869 111.037 124.626 111.037 124.626L109.594 122.535C109.594 122.535 108.036 119.403 107.219 119.573C106.401 119.743 106.546 120.438 106.546 120.438L109.431 126.143L113.634 132.296L118.125 137.377L120.721 136.425L125.66 133.676Z" fill="#FFBE9D"/>
<path d="M117.394 132.658C117.525 132.041 117.612 131.413 117.654 130.78C117.822 129.652 118.163 127.96 119.38 126.871C119.872 126.404 120.486 126.136 121.126 126.11H121.342V125.847C121.275 124.675 121.313 123.558 121.275 122.819C121.306 122.412 121.256 122.003 121.13 121.62C121.064 122.014 121.03 122.413 121.029 122.814C120.956 123.846 120.928 124.882 120.948 125.918L121.145 125.655C120.408 125.653 119.694 125.948 119.13 126.488C118.514 127.054 118.044 127.799 117.769 128.645C117.553 129.318 117.418 130.022 117.365 130.736C117.282 131.374 117.292 132.023 117.394 132.658Z" fill="#EB996E"/>
</svg>
